<?xml version="1.0" encoding="UTF-8" standalone="no"?>
<svg
   viewBox="0 0 29 19.00017"
   version="1.1"
   id="svg28"
   sodipodi:docname="bank_wire.svg"
   width="29"
   height="19.00017"
   inkscape:version="1.2 (dc2aedaf03, 2022-05-15)"
   xmlns:inkscape="http://www.inkscape.org/namespaces/inkscape"
   xmlns:sodipodi="http://sodipodi.sourceforge.net/DTD/sodipodi-0.dtd"
   xmlns="http://www.w3.org/2000/svg"
   xmlns:svg="http://www.w3.org/2000/svg">
  <defs
     id="defs32">
    <linearGradient
       x1="27.062719"
       y1="-0.69216001"
       x2="6.5552001"
       y2="32"
       id="sail-svg-3a"
       gradientUnits="userSpaceOnUse">
      <stop
         stop-color="#002253"
         offset="0%"
         id="stop436" />
      <stop
         stop-color="#0082B1"
         offset="54.255%"
         id="stop438" />
      <stop
         stop-color="#0E9641"
         offset="100%"
         id="stop440" />
    </linearGradient>
  </defs>
  <sodipodi:namedview
     id="namedview30"
     pagecolor="#ffffff"
     bordercolor="#000000"
     borderopacity="0.25"
     inkscape:showpageshadow="2"
     inkscape:pageopacity="0.0"
     inkscape:pagecheckerboard="0"
     inkscape:deskcolor="#d1d1d1"
     showgrid="false"
     inkscape:zoom="9.4531249"
     inkscape:cx="-4.707438"
     inkscape:cy="10.155372"
     inkscape:window-width="1350"
     inkscape:window-height="1041"
     inkscape:window-x="208"
     inkscape:window-y="0"
     inkscape:window-maximized="0"
     inkscape:current-layer="svg28" />
  <g
     id="Слой_1"
     transform="matrix(0.03534662,0,0,0.03534662,-26.822265,-1.0336012)">
</g>
  <a
     href="http://www.slotsup.com/casino-deposit-methods"
     target="_blank"
     id="a135"
     transform="matrix(0.03534662,0,0,0.03534662,-26.822265,-1.0336012)" />
  <rect
     style="fill:#ffffff"
     id="rect291"
     width="57.44746"
     height="48.022484"
     x="-16.605902"
     y="-14.810673" />
  <g
     id="bank-wire"
     transform="matrix(0.01350999,0,0,0.01350999,1.0038486,4.3521005)">
	<path
   id="XMLID_570_"
   style="fill:#134775"
   d="m 989.877,389.396 c -44.439,0 -78.324,-5.555 -102.765,-17.22 V 105.542 c 11.11,-5.555 25.552,-9.443 42.217,-12.776 17.22,-2.777 36.107,-4.444 56.66,-4.444 40.55,0 71.102,7.221 92.211,21.664 21.109,14.443 31.663,33.329 31.663,56.104 0,17.22 -6.11,31.663 -17.776,42.772 -11.665,11.11 -24.997,18.331 -39.995,21.664 16.665,4.444 32.218,13.332 46.105,26.108 13.887,12.776 20.553,28.885 20.553,47.216 0,28.33 -11.11,49.438 -33.885,63.881 -22.219,14.444 -53.882,21.665 -94.988,21.665 z m -3.333,-262.19 c -3.888,0 -7.777,0 -11.665,0 -4.444,0 -9.443,1.111 -15.554,3.333 v 86.1 h 14.998 c 23.33,0 39.995,-3.333 49.438,-10.554 9.443,-7.221 13.887,-18.887 13.887,-34.996 -0.555,-28.885 -17.22,-43.883 -51.104,-43.883 z m -12.221,122.763 h -14.998 v 93.877 c 3.888,1.111 7.777,2.222 12.776,2.777 4.444,1.111 9.999,1.111 16.109,1.111 18.887,0 32.774,-3.333 41.661,-10.554 9.443,-7.221 13.887,-18.887 13.887,-35.551 0,-18.331 -4.999,-31.107 -15.554,-39.44 -9.997,-7.776 -28.329,-12.22 -53.881,-12.22 z m 368.843,134.983 -19.442,-62.214 h -96.655 l -20.553,62.214 h -67.769 L 1243.734,92.766 h 73.88 L 1421.49,384.952 Z M 1284.84,188.31 c -2.777,-9.443 -4.444,-16.665 -5.555,-21.664 -0.556,-4.999 -1.666,-9.443 -2.222,-13.887 -0.556,3.888 -1.666,7.777 -2.222,11.11 -0.556,3.333 -3.333,11.665 -7.221,23.886 l -29.441,95.544 h 74.991 z m 354.956,196.642 -107.209,-163.868 c -3.888,-6.11 -7.777,-12.221 -10.554,-18.331 -2.777,-6.11 -4.999,-9.999 -6.11,-12.221 0.556,3.888 0.556,8.332 0.556,13.887 0,4.999 0,11.11 0,17.776 v 162.757 h -63.325 V 92.766 h 66.658 l 98.321,149.981 c 4.999,7.777 8.888,13.887 11.11,18.331 2.222,4.444 4.444,7.777 4.999,9.999 -0.556,-3.888 -0.556,-7.777 -0.556,-12.776 0,-4.444 0,-9.999 0,-16.665 V 92.766 h 63.881 v 292.186 z m 275.521,0 -79.434,-144.426 -1.111,144.426 h -74.991 V 92.766 h 74.991 v 131.65 l 81.657,-131.65 h 77.213 l -91.1,133.872 97.21,157.758 z m -704.912,353.845 h -75.546 l -47.216,-153.314 c -2.222,-6.666 -3.888,-12.776 -4.444,-17.776 -1.111,-4.999 -1.667,-9.443 -2.222,-13.332 -0.556,2.222 -0.556,4.444 -1.111,7.777 -0.556,3.333 -2.777,11.11 -6.11,23.33 l -46.105,153.87 H 951.549 L 869.337,447.166 h 84.989 L 992.655,617.7 c 1.666,6.666 2.222,12.776 3.333,19.442 0.556,6.666 1.667,11.11 2.222,13.332 1.111,-4.444 2.222,-8.888 3.333,-14.443 1.111,-5.555 2.777,-11.665 4.999,-18.331 l 48.327,-170.534 h 61.659 l 47.216,170.534 c 1.667,7.221 3.333,13.887 3.888,19.998 1.111,6.11 1.667,10.554 2.222,12.776 0.556,-4.444 1.667,-8.888 2.222,-13.887 1.111,-4.999 2.222,-11.11 3.888,-19.442 l 39.44,-170.534 h 77.768 z m 127.762,0 V 446.611 h 86.1 v 292.186 z m 328.848,0 -86.656,-128.873 -1.111,128.873 h -84.989 v -279.41 c 13.887,-5.555 29.996,-9.443 48.883,-12.776 18.886,-2.777 38.884,-4.444 61.104,-4.444 48.327,0 84.434,7.777 108.32,23.886 23.886,16.109 36.107,38.329 36.107,67.214 0,18.887 -7.777,35.551 -23.886,48.883 -16.109,13.887 -36.107,22.219 -60.548,24.997 l 97.21,130.539 h -94.433 v 1.111 z m -62.77,-257.19 c -8.888,0 -17.22,1.111 -24.997,3.888 v 107.209 c 4.444,1.111 10.554,1.666 18.331,1.666 21.664,0 38.328,-4.999 49.438,-14.998 11.11,-9.999 16.665,-23.886 16.665,-42.217 0,-19.442 -4.444,-33.329 -13.332,-42.217 -8.332,-8.887 -23.886,-13.331 -46.105,-13.331 z m 203.308,257.19 V 446.611 h 186.643 v 46.105 h -99.988 v 74.435 h 87.767 v 44.994 h -87.767 v 79.99 h 99.988 v 46.105 z" />

	<path
   id="XMLID_561_"
   style="fill:#134775"
   d="m 207.752,556.042 c 0,8.888 -7.777,16.665 -17.776,16.665 h -60.548 c -9.999,0 -17.776,-7.221 -17.776,-16.665 V 251.635 c 0,-8.888 7.777,-16.665 17.776,-16.665 h 60.548 c 9.999,0 17.776,7.221 17.776,16.665 z m 172.201,0 c 0,8.888 -7.777,16.665 -17.776,16.665 h -60.548 c -9.999,0 -17.776,-7.221 -17.776,-16.665 V 251.635 c 0,-8.888 7.777,-16.665 17.776,-16.665 h 60.548 c 9.999,0 17.776,7.221 17.776,16.665 z m 172.2,2.222 c 0,8.888 -7.777,16.665 -17.776,16.665 H 473.83 c -9.999,0 -17.776,-7.221 -17.776,-16.665 V 253.857 c 0,-8.888 7.777,-16.665 17.776,-16.665 h 60.548 c 9.999,0 17.776,7.221 17.776,16.665 v 304.407 z m 172.757,0 c 0,8.888 -7.777,16.665 -17.776,16.665 h -60.548 c -9.999,0 -17.776,-7.221 -17.776,-16.665 V 253.857 c 0,-8.888 7.777,-16.665 17.776,-16.665 h 60.548 c 9.999,0 17.776,7.221 17.776,16.665 z m 67.769,-356.622 c 0,9.999 -7.777,17.776 -17.776,17.776 H 63.325 c -9.999,0 -17.776,-7.777 -17.776,-17.776 v -14.998 c 0,-9.999 7.777,-17.776 17.776,-17.776 h 711.578 c 9.999,0 17.776,7.777 17.776,17.776 z m 42.772,520.49 c 0,9.999 -7.777,17.776 -17.776,17.776 H 17.775 C 7.777,739.908 0,732.131 0,722.132 V 679.36 c 0,-9.999 7.777,-17.776 17.776,-17.776 h 799.9 c 9.999,0 17.776,7.777 17.776,17.776 v 42.772 z M 72.769,152.203 417.726,0 759.906,152.203 Z m 719.91,469.386 c 0,9.999 -7.777,17.776 -17.776,17.776 H 63.325 c -9.999,0 -17.776,-7.777 -17.776,-17.776 v -14.998 c 0,-9.999 7.777,-17.776 17.776,-17.776 h 711.578 c 9.999,0 17.776,7.777 17.776,17.776 z" />

</g>
</svg>
