<?xml version="1.0" encoding="UTF-8" standalone="no"?>
<svg
   viewBox="0 0 29 19.00017"
   version="1.1"
   id="svg28"
   sodipodi:docname="jcb.svg"
   width="29"
   height="19.00017"
   inkscape:version="1.2 (dc2aedaf03, 2022-05-15)"
   xmlns:inkscape="http://www.inkscape.org/namespaces/inkscape"
   xmlns:sodipodi="http://sodipodi.sourceforge.net/DTD/sodipodi-0.dtd"
   xmlns="http://www.w3.org/2000/svg"
   xmlns:svg="http://www.w3.org/2000/svg">
  <defs
     id="defs32">
    <linearGradient
       x1="27.062719"
       y1="-0.69216001"
       x2="6.5552001"
       y2="32"
       id="sail-svg-3a"
       gradientUnits="userSpaceOnUse">
      <stop
         stop-color="#002253"
         offset="0%"
         id="stop436" />
      <stop
         stop-color="#0082B1"
         offset="54.255%"
         id="stop438" />
      <stop
         stop-color="#0E9641"
         offset="100%"
         id="stop440" />
    </linearGradient>
  </defs>
  <sodipodi:namedview
     id="namedview30"
     pagecolor="#ffffff"
     bordercolor="#000000"
     borderopacity="0.25"
     inkscape:showpageshadow="2"
     inkscape:pageopacity="0.0"
     inkscape:pagecheckerboard="0"
     inkscape:deskcolor="#d1d1d1"
     showgrid="false"
     inkscape:zoom="26.737475"
     inkscape:cx="21.542797"
     inkscape:cy="10.659196"
     inkscape:window-width="1920"
     inkscape:window-height="1027"
     inkscape:window-x="-8"
     inkscape:window-y="-8"
     inkscape:window-maximized="1"
     inkscape:current-layer="svg28" />
  <g
     id="Page-1-1"
     fill="none"
     fill-rule="evenodd"
     transform="translate(0.01146747,-1.9254241)">
    <g
       id="jcb">
      <g
         id="card-6"
         transform="translate(0,2)">
        <path
           id="shape-8"
           fill="#ebf1f8"
           d="M 26.58,19 H 2.42 A 2.4,2.4 0 0 1 0,16.62 V 2.38 A 2.4,2.4 0 0 1 2.42,0 H 26.58 A 2.4,2.4 0 0 1 29,2.38 V 16.63 A 2.4,2.4 0 0 1 26.58,19 Z" />
        <path
           id="path754"
           fill="#047ab1"
           d="m 5,17 h 4 c 0.91,0 2,-1.12 2,-2 V 2 H 7 C 6.09,2 5,3.12 5,5 Z" />
        <path
           id="path756"
           fill="#ffffff"
           d="M 7.27,12.14 A 8.2,8.2 0 0 1 5,11.82 v -1.1 a 3.9,3.9 0 0 0 1.9,0.58 c 0.77,0 1.2,-0.54 1.2,-1.28 V 7 H 10 v 3.02 c 0,1.18 -0.62,2.12 -2.73,2.12 z" />
        <path
           id="path758"
           fill="#d42d06"
           d="m 12,17 h 4 c 0.91,0 2,-1.12 2,-2 V 2 h -4 c -0.91,0 -2,1.12 -2,3 z" />
        <path
           id="path760"
           fill="#ffffff"
           d="m 12,7.7 c 0.58,-0.56 1.58,-0.91 3.2,-0.83 0.88,0.04 1.8,0.3 1.8,0.3 V 8.28 A 4.07,4.07 0 0 0 15.27,7.71 C 14.04,7.6 13.29,8.29 13.29,9.5 c 0,1.21 0.75,1.9 1.98,1.8 A 4.13,4.13 0 0 0 17,10.72 v 1.1 c 0,0 -0.92,0.27 -1.8,0.31 -1.62,0.08 -2.62,-0.27 -3.2,-0.83 z" />
        <path
           id="path762"
           fill="#67b637"
           d="m 19,17 h 4 c 0.91,0 2,-1.12 2,-2 V 2 h -4 c -0.91,0 -2,1.12 -2,3 z" />
        <path
           id="path764"
           fill="#ffffff"
           d="M 24,10.7 C 24,11.5 23.38,12 22.55,12 H 19 V 7 h 3.23 l 0.23,0.01 c 0.73,0.04 1.27,0.47 1.27,1.21 0,0.58 -0.37,1.08 -1.04,1.2 V 9.45 C 23.43,9.5 24,9.97 24,10.7 Z M 21.45,7.79 A 0.91,0.91 0 0 0 21.32,7.78 h -1.2 v 1.26 h 1.33 C 21.7,8.98 21.91,8.75 21.91,8.41 21.91,8.07 21.7,7.84 21.45,7.79 Z M 21.6,9.83 A 0.86,0.86 0 0 0 21.44,9.82 h -1.32 v 1.37 h 1.32 l 0.16,-0.02 c 0.25,-0.06 0.46,-0.32 0.46,-0.67 0,-0.35 -0.2,-0.6 -0.46,-0.67 z" />
      </g>
    </g>
  </g>
</svg>
