<?xml version="1.0" encoding="UTF-8" standalone="no"?>
<svg
   viewBox="0 0 29 19.00017"
   version="1.1"
   id="svg28"
   sodipodi:docname="visa.svg"
   width="29"
   height="19.00017"
   inkscape:version="1.2 (dc2aedaf03, 2022-05-15)"
   xmlns:inkscape="http://www.inkscape.org/namespaces/inkscape"
   xmlns:sodipodi="http://sodipodi.sourceforge.net/DTD/sodipodi-0.dtd"
   xmlns="http://www.w3.org/2000/svg"
   xmlns:svg="http://www.w3.org/2000/svg">
  <defs
     id="defs32" />
  <sodipodi:namedview
     id="namedview30"
     pagecolor="#ffffff"
     bordercolor="#000000"
     borderopacity="0.25"
     inkscape:showpageshadow="2"
     inkscape:pageopacity="0.0"
     inkscape:pagecheckerboard="0"
     inkscape:deskcolor="#d1d1d1"
     showgrid="false"
     inkscape:zoom="37.8125"
     inkscape:cx="15.947107"
     inkscape:cy="8.4892562"
     inkscape:window-width="1920"
     inkscape:window-height="1027"
     inkscape:window-x="-8"
     inkscape:window-y="-8"
     inkscape:window-maximized="1"
     inkscape:current-layer="svg28" />
  <g
     id="Page-1-9"
     fill="none"
     fill-rule="evenodd"
     transform="translate(-0.0074381,-1.9528925)">
    <g
       id="visa">
      <g
         id="card-9"
         transform="translate(0,2)">
        <path
           id="shape-9"
           fill="#f6f9fc"
           d="M 26.58,19 H 2.42 A 2.4,2.4 0 0 1 0,16.62 V 2.38 A 2.4,2.4 0 0 1 2.42,0 H 26.58 A 2.4,2.4 0 0 1 29,2.38 V 16.63 A 2.4,2.4 0 0 1 26.58,19 Z" />
        <path
           id="path207"
           fill="#f99f1b"
           d="m 0,16 v 0.63 A 2.4,2.4 0 0 0 2.42,19 H 26.58 A 2.4,2.4 0 0 0 29,16.62 V 16 Z" />
        <path
           id="path209"
           fill="#2d4990"
           d="M 0,3 V 2.37 A 2.4,2.4 0 0 1 2.42,0 H 26.58 A 2.4,2.4 0 0 1 29,2.38 V 3 Z m 13.9,3.12 -1.48,6.77 h -1.77 l 1.46,-6.77 h 1.78 z m 7.47,4.38 0.94,-2.55 0.54,2.55 z m 1.99,2.4 H 25 L 23.56,6.12 h -1.51 a 0.8,0.8 0 0 0 -0.76,0.5 l -2.67,6.27 h 1.87 l 0.37,-1 h 2.28 l 0.22,1 z M 18.72,10.68 C 18.72,8.9 16.21,8.8 16.22,8 16.23,7.76 16.47,7.5 16.98,7.43 a 3.4,3.4 0 0 1 1.75,0.3 L 19.04,6.3 C 18.62,6.15 18.07,6 17.38,6 c -1.76,0 -3,0.92 -3,2.24 -0.01,0.97 0.88,1.52 1.55,1.84 0.7,0.33 0.93,0.55 0.93,0.84 -0.01,0.46 -0.56,0.66 -1.07,0.66 -0.9,0.02 -1.41,-0.23 -1.82,-0.42 l -0.33,1.48 c 0.42,0.19 1.19,0.35 1.98,0.36 1.87,0 3.09,-0.9 3.1,-2.32 z M 11.35,6.12 8.47,12.9 H 6.6 L 5.18,7.5 C 5.09,7.17 5.01,7.05 4.75,6.9 A 7.53,7.53 0 0 0 3,6.33 l 0.04,-0.2 h 3.03 c 0.38,0 0.73,0.26 0.82,0.7 l 0.75,3.91 1.85,-4.6 h 1.86 z" />
      </g>
    </g>
  </g>
</svg>
