<svg width="24" height="24" viewBox="0 0 24 24" fill="none" xmlns="http://www.w3.org/2000/svg">
<path d="M19 8H5C3.89543 8 3 8.89543 3 10V20C3 21.1046 3.89543 22 5 22H19C20.1046 22 21 21.1046 21 20V10C21 8.89543 20.1046 8 19 8Z" stroke="#808080" stroke-width="2" stroke-linecap="round" stroke-linejoin="round"/>
<path d="M12 5C12 4.40666 11.8241 3.82664 11.4944 3.33329C11.1648 2.83994 10.6962 2.45543 10.1481 2.22836C9.59987 2.0013 8.99667 1.94189 8.41473 2.05765C7.83279 2.1734 7.29824 2.45912 6.87868 2.87868C6.45912 3.29824 6.1734 3.83279 6.05765 4.41473C5.94189 4.99667 6.0013 5.59987 6.22836 6.14805C6.45543 6.69623 6.83994 7.16477 7.33329 7.49441C7.82664 7.82405 8.40666 8 9 8" stroke="#808080" stroke-width="2" stroke-linecap="round" stroke-linejoin="round"/>
<path d="M15 8C15.5933 8 16.1734 7.82405 16.6667 7.49441C17.1601 7.16477 17.5446 6.69623 17.7716 6.14805C17.9987 5.59987 18.0581 4.99667 17.9424 4.41473C17.8266 3.83279 17.5409 3.29824 17.1213 2.87868C16.7018 2.45912 16.1672 2.1734 15.5853 2.05765C15.0033 1.94189 14.4001 2.0013 13.8519 2.22836C13.3038 2.45543 12.8352 2.83994 12.5056 3.33329C12.1759 3.82664 12 4.40666 12 5" stroke="#808080" stroke-width="2" stroke-linecap="round" stroke-linejoin="round"/>
<path d="M12 5V22" stroke="#808080" stroke-width="2" stroke-linecap="round" stroke-linejoin="round"/>
<path d="M21 15H3" stroke="#808080" stroke-width="2" stroke-linecap="round" stroke-linejoin="round"/>
</svg>
