<svg width="24" height="24" viewBox="0 0 24 24" fill="none" xmlns="http://www.w3.org/2000/svg">
<path d="M16.4779 5.40783L18.5959 7.52483L16.4779 5.40783ZM17.8399 3.54283L12.1129 9.26983C11.817 9.56532 11.6152 9.94181 11.5329 10.3518L11.0039 12.9998L13.6519 12.4698C14.0619 12.3878 14.4379 12.1868 14.7339 11.8908L20.4609 6.16383C20.633 5.99173 20.7695 5.78742 20.8627 5.56256C20.9558 5.33771 21.0037 5.09671 21.0037 4.85333C21.0037 4.60994 20.9558 4.36894 20.8627 4.14409C20.7695 3.91923 20.633 3.71492 20.4609 3.54283C20.2888 3.37073 20.0845 3.23421 19.8596 3.14108C19.6348 3.04794 19.3938 3 19.1504 3C18.907 3 18.666 3.04794 18.4412 3.14108C18.2163 3.23421 18.012 3.37073 17.8399 3.54283V3.54283Z" stroke="#808080" stroke-width="2" stroke-linecap="round" stroke-linejoin="round"/>
<path d="M19.002 15V18C19.002 18.5304 18.7912 19.0391 18.4162 19.4142C18.0411 19.7893 17.5324 20 17.002 20H6.00195C5.47152 20 4.96281 19.7893 4.58774 19.4142C4.21267 19.0391 4.00195 18.5304 4.00195 18V7C4.00195 6.46957 4.21267 5.96086 4.58774 5.58579C4.96281 5.21071 5.47152 5 6.00195 5H9.00195" stroke="#808080" stroke-width="2" stroke-linecap="round" stroke-linejoin="round"/>
</svg>
