<svg width="25" height="25" viewBox="0 0 25 25" fill="none" xmlns="http://www.w3.org/2000/svg">
<path d="M20.2429 21.2359C20.0144 21.2426 19.7906 21.1708 19.6087 21.0325C19.4267 20.8942 19.2976 20.6978 19.2429 20.4759C18.7926 18.6919 17.8011 17.091 16.4045 15.8932C15.0079 14.6953 13.2746 13.9592 11.4429 13.7859V14.9059C11.4427 15.2562 11.3392 15.5986 11.1453 15.8904C10.9514 16.1821 10.6758 16.4101 10.3529 16.5459C10.0027 16.7069 9.61354 16.7632 9.23212 16.7082C8.8507 16.6532 8.49329 16.4892 8.20287 16.2359L3.14287 11.8259C2.94884 11.6607 2.793 11.4553 2.68614 11.2239C2.57927 10.9926 2.52393 10.7408 2.52393 10.4859C2.52393 10.2311 2.57927 9.97925 2.68614 9.74789C2.793 9.51653 2.94884 9.31114 3.14287 9.14591L8.20287 4.72591C8.49711 4.46823 8.86044 4.30246 9.24791 4.24914C9.63537 4.19582 10.03 4.25728 10.3829 4.42591C10.7058 4.5617 10.9814 4.78973 11.1753 5.08146C11.3692 5.37318 11.4727 5.71563 11.4729 6.06591V7.23591C14.1891 7.44592 16.7279 8.66639 18.5884 10.6565C20.4489 12.6466 21.496 15.2617 21.5229 17.9859C21.5215 18.8255 21.4174 19.6617 21.2129 20.4759C21.1581 20.6978 21.029 20.8942 20.8471 21.0325C20.6651 21.1708 20.4413 21.2426 20.2129 21.2359H20.2429Z" fill="black"/>
</svg>
