<svg width="64" height="64" viewBox="0 0 64 64" fill="none" xmlns="http://www.w3.org/2000/svg">
<path d="M62.4532 32C62.4532 48.8457 48.8073 62.5 31.9766 62.5C15.1459 62.5 1.5 48.8457 1.5 32C1.5 15.1543 15.1459 1.5 31.9766 1.5C48.8073 1.5 62.4532 15.1543 62.4532 32Z" stroke="#594E45" stroke-width="3"/>
<path d="M48.8873 33.2307V43.0769C48.8867 43.6479 48.6597 44.1954 48.2562 44.5992C47.8527 45.0029 47.3057 45.2301 46.7351 45.2307H17.2182C16.6476 45.2301 16.1005 45.0029 15.697 44.5992C15.2935 44.1954 15.0666 43.6479 15.0659 43.0769V33.2307C15.0666 32.6597 15.2935 32.1122 15.697 31.7084C16.1005 31.3047 16.6476 31.0775 17.2182 31.0769H24.5974C24.842 31.0769 25.0767 31.1741 25.2496 31.3472C25.4226 31.5204 25.5198 31.7551 25.5198 32C25.5198 32.2448 25.4226 32.4796 25.2496 32.6527C25.0767 32.8258 24.842 32.923 24.5974 32.923H17.2182C17.1367 32.9232 17.0585 32.9556 17.0009 33.0133C16.9433 33.071 16.9108 33.1492 16.9107 33.2307V43.0769C16.9108 43.1585 16.9433 43.2366 17.0009 43.2943C17.0585 43.352 17.1367 43.3845 17.2182 43.3846H46.7351C46.8166 43.3845 46.8947 43.352 46.9523 43.2943C47.01 43.2366 47.0424 43.1585 47.0425 43.0769V33.2307C47.0424 33.1492 47.01 33.071 46.9523 33.0133C46.8947 32.9556 46.8166 32.9232 46.7351 32.923H39.3558C39.1112 32.923 38.8766 32.8258 38.7036 32.6527C38.5306 32.4796 38.4334 32.2448 38.4334 32C38.4334 31.7551 38.5306 31.5204 38.7036 31.3472C38.8766 31.1741 39.1112 31.0769 39.3558 31.0769H46.7351C47.3057 31.0775 47.8527 31.3047 48.2562 31.7084C48.6597 32.1122 48.8867 32.6597 48.8873 33.2307ZM25.2497 24.0372L31.0542 18.2284V32C31.0542 32.2448 31.1514 32.4796 31.3244 32.6527C31.4974 32.8258 31.732 32.923 31.9766 32.923C32.2213 32.923 32.4559 32.8258 32.6289 32.6527C32.8018 32.4796 32.899 32.2448 32.899 32V18.2284L38.7035 24.0372C38.877 24.208 39.1108 24.3033 39.3542 24.3023C39.5975 24.3014 39.8306 24.2042 40.0027 24.0321C40.1748 23.8599 40.2719 23.6266 40.2729 23.3831C40.2739 23.1396 40.1788 22.9056 40.0081 22.732L32.6294 15.348C32.5859 15.3043 32.5382 15.2652 32.4869 15.231C32.4838 15.229 32.4804 15.2275 32.4772 15.2253C32.4298 15.1944 32.3796 15.168 32.3273 15.1464L32.3156 15.1421C32.2638 15.1214 32.2102 15.1054 32.1554 15.0944L32.1463 15.0932C32.0342 15.0715 31.919 15.0715 31.8069 15.0932C31.8038 15.0937 31.8008 15.094 31.7978 15.0946C31.7431 15.1055 31.6895 15.1214 31.6376 15.1421C31.6338 15.1437 31.63 15.1447 31.626 15.1464C31.5737 15.168 31.5235 15.1944 31.4761 15.2253C31.473 15.2275 31.4696 15.229 31.4664 15.2312C31.4151 15.2652 31.3674 15.3043 31.3239 15.3478L23.9451 22.732C23.7745 22.9056 23.6793 23.1396 23.6803 23.3831C23.6813 23.6266 23.7785 23.8599 23.9506 24.0321C24.1226 24.2042 24.3557 24.3014 24.5991 24.3023C24.8424 24.3033 25.0763 24.208 25.2497 24.0372ZM42.738 38.1538C42.738 37.8495 42.6478 37.5521 42.4789 37.2991C42.31 37.0461 42.0699 36.8489 41.789 36.7325C41.508 36.616 41.1989 36.5855 40.9007 36.6449C40.6025 36.7043 40.3286 36.8508 40.1136 37.0659C39.8986 37.2811 39.7522 37.5552 39.6928 37.8537C39.6335 38.1521 39.664 38.4614 39.7803 38.7425C39.8967 39.0237 40.0937 39.2639 40.3465 39.433C40.5994 39.602 40.8966 39.6923 41.2006 39.6923C41.6082 39.6918 41.999 39.5295 42.2872 39.2411C42.5754 38.9527 42.7375 38.5617 42.738 38.1538Z" fill="#594E45"/>
</svg>
