<svg width="24" height="24" viewBox="0 0 24 24" fill="none" xmlns="http://www.w3.org/2000/svg">
<path d="M18.0909 10.5455C18.0909 15.6364 11.5455 20 11.5455 20C11.5455 20 5 15.6364 5 10.5455C5 8.80949 5.68961 7.14463 6.91712 5.91712C8.14463 4.68961 9.80949 4 11.5455 4C13.2814 4 14.9463 4.68961 16.1738 5.91712C17.4013 7.14463 18.0909 8.80949 18.0909 10.5455Z" stroke="black" stroke-width="2" stroke-linecap="round" stroke-linejoin="round"/>
<path d="M11.5455 12.7272C12.7505 12.7272 13.7273 11.7503 13.7273 10.5453C13.7273 9.34036 12.7505 8.36353 11.5455 8.36353C10.3405 8.36353 9.36365 9.34036 9.36365 10.5453C9.36365 11.7503 10.3405 12.7272 11.5455 12.7272Z" stroke="black" stroke-width="2" stroke-linecap="round" stroke-linejoin="round"/>
</svg>
