<svg width="38" height="24" viewBox="0 0 38 24" fill="none" xmlns="http://www.w3.org/2000/svg">
<rect opacity="0.98" width="38" height="24" rx="2" fill="white"/>
<path d="M15 19C18.866 19 22 15.866 22 12C22 8.13401 18.866 5 15 5C11.134 5 8 8.13401 8 12C8 15.866 11.134 19 15 19Z" fill="#EB001B"/>
<path d="M23 19C26.866 19 30 15.866 30 12C30 8.13401 26.866 5 23 5C19.134 5 16 8.13401 16 12C16 15.866 19.134 19 23 19Z" fill="#F79E1B"/>
<path d="M22 11.9998C22 9.5998 20.8 7.4998 19 6.2998C17.2 7.5998 16 9.6998 16 11.9998C16 14.2998 17.2 16.4998 19 17.6998C20.8 16.4998 22 14.3998 22 11.9998Z" fill="#FF5F00"/>
</svg>
