<svg width="38" height="24" viewBox="0 0 38 24" fill="none" xmlns="http://www.w3.org/2000/svg">
<rect width="38" height="24" fill="#0077A6"/>
<path fill-rule="evenodd" clip-rule="evenodd" d="M7.5 1.31201L29.5 2.5L31 13H31.5V16.5L30 17.5L7.5 22.219V1.31201Z" fill="white"/>
<path fill-rule="evenodd" clip-rule="evenodd" d="M6.63835 23.7604H6.55866C6.55866 23.7206 6.5387 23.6607 6.5387 23.6406C6.5387 23.6208 6.5387 23.581 6.47883 23.581H6.35909V23.7604H6.29922V23.3416H6.47883C6.55866 23.3416 6.61839 23.3617 6.61839 23.4412C6.61839 23.5011 6.59843 23.5212 6.57862 23.5408C6.59858 23.5609 6.61839 23.5809 6.61839 23.6208V23.7005C6.61839 23.7206 6.61839 23.7206 6.63835 23.7206V23.7604ZM6.55866 23.4613C6.55866 23.4014 6.51875 23.4014 6.49879 23.4014H6.35909V23.5212H6.47883C6.51875 23.5212 6.55866 23.5011 6.55866 23.4613ZM6.89779 23.541C6.89779 23.3018 6.69836 23.1021 6.43892 23.1021C6.19957 23.1021 6 23.3018 6 23.541C6 23.8003 6.19957 24 6.43892 24C6.69822 23.9999 6.89779 23.8003 6.89779 23.541ZM6.83792 23.541C6.83792 23.7605 6.65845 23.92 6.43892 23.92C6.21939 23.92 6.05987 23.7604 6.05987 23.541C6.05987 23.3416 6.21953 23.1619 6.43892 23.1619C6.6583 23.1619 6.83792 23.3416 6.83792 23.541ZM31.4164 15.4813C31.4164 16.0799 31.0374 16.3588 30.359 16.3588H29.0625V15.7603H30.359C30.4787 15.7603 30.5785 15.7405 30.6186 15.7007C30.6583 15.6606 30.6982 15.6008 30.6982 15.5211C30.6982 15.4411 30.6585 15.3614 30.6186 15.3216C30.5785 15.2816 30.4988 15.2618 30.3791 15.2618C29.7608 15.2417 28.9826 15.2816 28.9826 14.4039C28.9826 14.0048 29.2419 13.5658 29.9401 13.5658H31.2767V14.1644H30.0398C29.9203 14.1644 29.8404 14.1644 29.7805 14.2042C29.7206 14.2641 29.6808 14.3239 29.6808 14.4237C29.6808 14.5235 29.7407 14.5834 29.8204 14.6234C29.9004 14.6432 29.9802 14.6632 30.08 14.6632H30.4389C30.818 14.6632 31.0575 14.7429 31.2171 14.8827C31.3366 15.0223 31.4164 15.202 31.4164 15.4813ZM28.6034 14.8827C28.4438 14.7429 28.2043 14.6632 27.8252 14.6632H27.4663C27.3667 14.6632 27.2867 14.6431 27.207 14.6234C27.127 14.5834 27.0674 14.5235 27.0674 14.4237C27.0674 14.3239 27.0873 14.2641 27.1671 14.2042C27.227 14.1644 27.3066 14.1644 27.4264 14.1644H28.6633V13.5658H27.3267C26.6084 13.5658 26.3689 14.0048 26.3689 14.4039C26.3689 15.2814 27.1471 15.2417 27.7657 15.2618C27.8851 15.2618 27.9651 15.2816 28.0049 15.3216C28.0446 15.3614 28.0848 15.4411 28.0848 15.5211C28.0848 15.6008 28.0448 15.6606 28.0049 15.7007C27.945 15.7405 27.8653 15.7603 27.7456 15.7603H26.4488V16.3588H27.7456C28.4237 16.3588 28.8029 16.0797 28.8029 15.4813C28.8029 15.202 28.7232 15.0223 28.6034 14.8827ZM26.0498 15.7805H24.474V15.2219H26.01V14.6635H24.474V14.1446H26.0498V13.5661H23.8156V16.359H26.0498V15.7805ZM23.0972 13.7058C22.8777 13.5861 22.6184 13.566 22.2793 13.566H20.7433V16.3588H21.4214V15.3415H22.1397C22.3789 15.3415 22.5188 15.3616 22.6185 15.4612C22.7383 15.6008 22.7383 15.8402 22.7383 16.0199V16.3588H23.3965V15.8201C23.3965 15.5608 23.3766 15.4411 23.2968 15.3015C23.2369 15.2216 23.1175 15.1219 22.9578 15.0621C23.1372 15.0025 23.4367 14.763 23.4367 14.3239C23.4365 14.0049 23.3168 13.8253 23.0972 13.7058ZM19.3068 13.566H17.1721L16.3142 14.4837L15.4962 13.566H12.803V16.3588H15.4565L16.3143 15.4411L17.1323 16.3588H18.4291V15.4214H19.267C19.8455 15.4214 20.4243 15.2618 20.4243 14.4837C20.4241 13.7256 19.8255 13.566 19.3068 13.566ZM22.5585 14.7232C22.4589 14.763 22.3591 14.763 22.2394 14.763L21.4214 14.7831V14.1445H22.2394C22.3591 14.1445 22.4788 14.1445 22.5585 14.2043C22.6385 14.2444 22.6981 14.3241 22.6981 14.4438C22.6981 14.5636 22.6385 14.6633 22.5585 14.7232ZM19.3068 14.8628H18.429V14.1445H19.3068C19.5463 14.1445 19.7058 14.2444 19.7058 14.4837C19.7058 14.7232 19.5461 14.8628 19.3068 14.8628ZM16.7332 14.9624L17.7705 13.8653V16.1196L16.7332 14.9624ZM15.1172 15.7805H13.4613V15.2219H14.9376V14.6635H13.4613V14.1446H15.1371L15.8753 14.9626L15.1172 15.7805ZM29.561 11.551H28.6034L27.3466 9.45625V11.551H25.9902L25.7306 10.9325H24.3342L24.0749 11.551H23.2967C22.9775 11.551 22.5585 11.4712 22.3193 11.2317C22.0998 10.9924 21.9801 10.6732 21.9801 10.1744C21.9801 9.75546 22.0399 9.37642 22.339 9.07721C22.5384 8.85768 22.8977 8.75804 23.3564 8.75804H23.9947V9.35661H23.3564C23.1172 9.35661 22.9773 9.39652 22.8378 9.51627C22.718 9.63601 22.6582 9.85539 22.6582 10.1546C22.6582 10.4538 22.718 10.6734 22.8378 10.8131C22.9374 10.9127 23.1172 10.9526 23.2965 10.9526H23.5959L24.5534 8.75818H25.551L26.6682 11.3915V8.75804H27.7056L28.8827 10.6932V8.75804H29.5608L29.561 11.551ZM21.6409 8.75804H20.9628V11.551H21.6409V8.75804ZM20.2244 8.87778C20.0049 8.75804 19.7657 8.75804 19.4265 8.75804H17.8902V11.551H18.5485V10.5335H19.2667C19.5062 10.5335 19.6659 10.5535 19.7655 10.6532C19.8853 10.7929 19.8652 11.0324 19.8652 11.1919V11.551H20.5433V10.9924C20.5433 10.753 20.5235 10.6333 20.4238 10.4936C20.3639 10.4138 20.2442 10.314 20.1046 10.2542C20.284 10.1744 20.5835 9.95504 20.5835 9.51612C20.5836 9.19695 20.4438 9.01734 20.2244 8.87778ZM17.4114 10.9726H15.8553V10.4139H17.3915V9.83544H15.8553V9.33665H17.4114V8.75818H15.1771V11.5512H17.4114V10.9726ZM14.6783 8.75804H13.581L12.7631 10.6532L11.8853 8.75804H10.808V11.3914L9.67085 8.75804H8.67342L7.47641 11.551H8.19459L8.45389 10.9325H9.85032L10.1096 11.551H11.4663V9.35661L12.4438 11.551H13.0222L13.9999 9.35661V11.551H14.6781L14.6783 8.75804ZM25.4914 10.3341L25.0324 9.23687L24.5736 10.3341H25.4914ZM19.7058 9.89531C19.6061 9.95518 19.5064 9.95518 19.3667 9.95518H18.5485V9.3368H19.3665C19.4863 9.3368 19.6257 9.3368 19.7056 9.37671C19.7853 9.43658 19.8254 9.51641 19.8254 9.63601C19.8254 9.75561 19.7855 9.85525 19.7058 9.89531ZM8.69323 10.3341L9.15211 9.23687L9.61098 10.3341H8.69323ZM31.2569 0H7.45631V10.0548L8.27427 8.19952H10.0098L10.2493 8.6584V8.19952H12.2843L12.7431 9.19695L13.182 8.19952H19.6659C19.9649 8.19952 20.2242 8.25939 20.424 8.41891V8.19952H22.1994V8.41891C22.4985 8.25925 22.8776 8.19952 23.3166 8.19952H25.8901L26.1296 8.6584V8.19952H28.0248L28.3042 8.6584V8.19952H30.1594V12.1097H28.2843L27.9253 11.5113V12.1097H25.591L25.3317 11.4713H24.753L24.4937 12.1097H23.2769C22.798 12.1097 22.4388 11.9899 22.1996 11.8703V12.1097H19.3068V11.2119C19.3068 11.0922 19.2868 11.0722 19.207 11.0722H19.1074V12.1095H13.5212V11.6108L13.3217 12.1095H12.1447L11.9453 11.6307V12.1095H9.69081L9.45147 11.4712H8.87285L8.61355 12.1095H7.45631V23.9001H31.2569V16.7379C30.9976 16.8576 30.6384 16.9175 30.2793 16.9175H28.5436V16.678C28.3441 16.8378 27.9849 16.9175 27.6459 16.9175H22.1795V16.0199C22.1795 15.9001 22.1597 15.9001 22.0597 15.9001H21.9601V16.9175H20.1645V15.8602C19.8654 15.9998 19.5262 15.9998 19.227 15.9998H19.0274V16.9175H16.8329L16.3143 16.3189L15.7359 16.9175H12.2044V13.0075H15.7954L16.3142 13.6058L16.8729 13.0075H19.2868C19.5659 13.0075 20.025 13.0472 20.2244 13.2467V13.0075H22.3789C22.5984 13.0075 23.0176 13.0472 23.2967 13.2467V13.0075H26.5486V13.2468C26.7282 13.0872 27.0674 13.0076 27.3665 13.0076H29.1819V13.2468C29.3816 13.1073 29.6607 13.0076 30.02 13.0076H31.2569V0Z" fill="#0077A6"/>
</svg>
