<?xml version="1.0" encoding="UTF-8" standalone="no"?>
<svg
   viewBox="0 0 29 19.00017"
   version="1.1"
   id="svg28"
   sodipodi:docname="diners.svg"
   width="29"
   height="19.00017"
   inkscape:version="1.2 (dc2aedaf03, 2022-05-15)"
   xmlns:inkscape="http://www.inkscape.org/namespaces/inkscape"
   xmlns:sodipodi="http://sodipodi.sourceforge.net/DTD/sodipodi-0.dtd"
   xmlns="http://www.w3.org/2000/svg"
   xmlns:svg="http://www.w3.org/2000/svg">
  <defs
     id="defs32">
    <linearGradient
       x1="27.062719"
       y1="-0.69216001"
       x2="6.5552001"
       y2="32"
       id="sail-svg-3a"
       gradientUnits="userSpaceOnUse">
      <stop
         stop-color="#002253"
         offset="0%"
         id="stop436" />
      <stop
         stop-color="#0082B1"
         offset="54.255%"
         id="stop438" />
      <stop
         stop-color="#0E9641"
         offset="100%"
         id="stop440" />
    </linearGradient>
  </defs>
  <sodipodi:namedview
     id="namedview30"
     pagecolor="#ffffff"
     bordercolor="#000000"
     borderopacity="0.25"
     inkscape:showpageshadow="2"
     inkscape:pageopacity="0.0"
     inkscape:pagecheckerboard="0"
     inkscape:deskcolor="#d1d1d1"
     showgrid="false"
     inkscape:zoom="26.737475"
     inkscape:cx="21.542797"
     inkscape:cy="10.659196"
     inkscape:window-width="1920"
     inkscape:window-height="1027"
     inkscape:window-x="-8"
     inkscape:window-y="-8"
     inkscape:window-maximized="1"
     inkscape:current-layer="svg28" />
  <g
     id="Page-1"
     fill="none"
     fill-rule="evenodd"
     transform="translate(0.01146745,-1.9628247)">
    <g
       id="diners">
      <g
         id="card"
         transform="translate(0,2)">
        <path
           id="shape"
           fill="#ebf1f8"
           d="M 26.58,19 H 2.42 A 2.4,2.4 0 0 1 0,16.62 V 2.38 A 2.4,2.4 0 0 1 2.42,0 H 26.58 A 2.4,2.4 0 0 1 29,2.38 V 16.63 A 2.4,2.4 0 0 1 26.58,19 Z" />
        <path
           id="path560"
           fill="#0165ac"
           d="M 12,2.02 V 2 h 5 v 0.02 a 7.5,7.5 0 0 1 0,14.96 V 17 H 12 V 16.98 A 7.5,7.5 0 0 1 12,2.02 Z" />
        <path
           id="path562"
           fill="#ffffff"
           d="M 14,13.74 A 4.5,4.5 0 0 0 14,5.26 Z M 11,5.26 a 4.5,4.5 0 0 0 0,8.48 z M 12.5,16 a 6.5,6.5 0 1 1 0,-13 6.5,6.5 0 0 1 0,13 z" />
      </g>
    </g>
  </g>
</svg>
