<?xml version="1.0" encoding="UTF-8" standalone="no"?>
<svg
   viewBox="0 0 29 19.00017"
   version="1.1"
   id="svg28"
   sodipodi:docname="discover.svg"
   width="29"
   height="19.00017"
   inkscape:version="1.2 (dc2aedaf03, 2022-05-15)"
   xmlns:inkscape="http://www.inkscape.org/namespaces/inkscape"
   xmlns:sodipodi="http://sodipodi.sourceforge.net/DTD/sodipodi-0.dtd"
   xmlns="http://www.w3.org/2000/svg"
   xmlns:svg="http://www.w3.org/2000/svg">
  <defs
     id="defs32">
    <linearGradient
       x1="27.062719"
       y1="-0.69216001"
       x2="6.5552001"
       y2="32"
       id="sail-svg-3a"
       gradientUnits="userSpaceOnUse">
      <stop
         stop-color="#002253"
         offset="0%"
         id="stop436" />
      <stop
         stop-color="#0082B1"
         offset="54.255%"
         id="stop438" />
      <stop
         stop-color="#0E9641"
         offset="100%"
         id="stop440" />
    </linearGradient>
  </defs>
  <sodipodi:namedview
     id="namedview30"
     pagecolor="#ffffff"
     bordercolor="#000000"
     borderopacity="0.25"
     inkscape:showpageshadow="2"
     inkscape:pageopacity="0.0"
     inkscape:pagecheckerboard="0"
     inkscape:deskcolor="#d1d1d1"
     showgrid="false"
     inkscape:zoom="26.737475"
     inkscape:cx="21.542797"
     inkscape:cy="10.659196"
     inkscape:window-width="1920"
     inkscape:window-height="1027"
     inkscape:window-x="-8"
     inkscape:window-y="-8"
     inkscape:window-maximized="1"
     inkscape:current-layer="svg28" />
  <g
     id="Page-1"
     fill="none"
     fill-rule="evenodd"
     transform="translate(0.01146735,-1.9628247)">
    <g
       id="discover">
      <g
         id="card"
         transform="translate(0,2)">
        <path
           id="shape"
           fill="#ebf1f8"
           d="M 26.58,19 H 2.42 A 2.4,2.4 0 0 1 0,16.62 V 2.38 A 2.4,2.4 0 0 1 2.42,0 H 26.58 A 2.4,2.4 0 0 1 29,2.38 V 16.63 A 2.4,2.4 0 0 1 26.58,19 Z" />
        <path
           id="path650"
           fill="#f27712"
           d="M 15.24,19 H 26.58 A 2.4,2.4 0 0 0 29,16.62 V 13.77 A 46.81,46.81 0 0 1 15.24,19 Z" />
        <path
           id="path652"
           fill="#000000"
           d="M 28,10.9 H 26.97 L 25.81,9.37 H 25.7 V 10.9 H 24.86 V 7.1 h 1.24 c 0.97,0 1.53,0.4 1.53,1.12 0,0.59 -0.35,0.97 -0.98,1.09 z M 26.76,8.25 c 0,-0.37 -0.28,-0.56 -0.8,-0.56 H 25.7 v 1.15 h 0.24 c 0.54,0 0.82,-0.2 0.82,-0.59 z M 21.92,7.1 h 2.38 v 0.64 h -1.54 v 0.85 h 1.48 v 0.65 h -1.48 v 1.03 h 1.54 v 0.64 H 21.92 Z M 19.22,11 17.4,7.09 h 0.92 l 1.15,2.56 1.16,-2.56 h 0.9 L 19.69,11 h -0.45 z m -7.61,-0.01 c -1.28,0 -2.28,-0.87 -2.28,-2 0,-1.1 1.02,-1.99 2.3,-1.99 0.36,0 0.66,0.07 1.03,0.23 V 8.11 A 1.5,1.5 0 0 0 11.61,7.68 c -0.8,0 -1.41,0.58 -1.41,1.31 0,0.77 0.6,1.32 1.45,1.32 0.38,0 0.67,-0.12 1.01,-0.42 v 0.88 c -0.38,0.16 -0.7,0.22 -1.05,0.22 z M 9.07,9.74 c 0,0.74 -0.61,1.25 -1.49,1.25 -0.64,0 -1.1,-0.22 -1.49,-0.72 L 6.64,9.8 c 0.19,0.34 0.51,0.51 0.91,0.51 0.38,0 0.65,-0.23 0.65,-0.53 0,-0.17 -0.08,-0.3 -0.25,-0.4 A 3.48,3.48 0 0 0 7.37,9.16 C 6.58,8.91 6.31,8.64 6.31,8.11 c 0,-0.62 0.58,-1.09 1.34,-1.09 0.48,0 0.91,0.15 1.27,0.43 L 8.48,7.95 A 0.92,0.92 0 0 0 7.8,7.65 c -0.36,0 -0.62,0.18 -0.62,0.42 0,0.2 0.15,0.31 0.65,0.48 0.96,0.3 1.24,0.58 1.24,1.2 z M 4.94,7.1 h 0.84 v 3.81 H 4.94 Z m -2.7,3.81 H 1 V 7.1 h 1.24 c 1.36,0 2.3,0.78 2.3,1.9 0,0.57 -0.28,1.11 -0.77,1.47 -0.42,0.3 -0.89,0.44 -1.54,0.44 z M 3.22,8.05 C 2.94,7.83 2.62,7.75 2.07,7.75 H 1.84 v 2.52 h 0.23 c 0.54,0 0.88,-0.1 1.15,-0.3 C 3.51,9.73 3.68,9.37 3.68,9 3.68,8.63 3.51,8.28 3.22,8.05 Z" />
        <path
           id="path654"
           fill="#f27712"
           d="m 15,7 c -1.1,0 -2,0.88 -2,1.97 0,1.16 0.86,2.03 2,2.03 1.12,0 2,-0.88 2,-2 0,-1.12 -0.87,-2 -2,-2 z" />
      </g>
    </g>
  </g>
</svg>
