<?xml version="1.0" encoding="UTF-8" standalone="no"?>
<svg
   viewBox="0 0 29 19.00017"
   version="1.1"
   id="svg28"
   sodipodi:docname="mastercard.svg"
   width="29"
   height="19.00017"
   inkscape:version="1.2 (dc2aedaf03, 2022-05-15)"
   xmlns:inkscape="http://www.inkscape.org/namespaces/inkscape"
   xmlns:sodipodi="http://sodipodi.sourceforge.net/DTD/sodipodi-0.dtd"
   xmlns="http://www.w3.org/2000/svg"
   xmlns:svg="http://www.w3.org/2000/svg">
  <defs
     id="defs32" />
  <sodipodi:namedview
     id="namedview30"
     pagecolor="#ffffff"
     bordercolor="#000000"
     borderopacity="0.25"
     inkscape:showpageshadow="2"
     inkscape:pageopacity="0.0"
     inkscape:pagecheckerboard="0"
     inkscape:deskcolor="#d1d1d1"
     showgrid="false"
     inkscape:zoom="37.8125"
     inkscape:cx="15.947107"
     inkscape:cy="8.4892562"
     inkscape:window-width="1920"
     inkscape:window-height="1027"
     inkscape:window-x="-8"
     inkscape:window-y="-8"
     inkscape:window-maximized="1"
     inkscape:current-layer="svg28" />
  <g
     id="Page-1"
     fill="none"
     fill-rule="evenodd"
     transform="translate(0,-1.999916)">
    <g
       id="mastercard">
      <g
         id="card"
         transform="translate(0,2)">
        <path
           id="shape"
           fill="#003663"
           d="M 26.58,19 H 2.42 A 2.4,2.4 0 0 1 0,16.62 V 2.38 A 2.4,2.4 0 0 1 2.42,0 H 26.58 A 2.4,2.4 0 0 1 29,2.38 V 16.63 A 2.4,2.4 0 0 1 26.58,19 Z" />
        <circle
           id="circle19"
           cx="10.5"
           cy="9.5"
           r="6.5"
           fill="#eb1c26" />
        <circle
           id="circle21"
           cx="18.5"
           cy="9.5"
           r="6.5"
           fill="#f99f1b" />
        <path
           id="path23"
           fill="#ef5d20"
           d="m 14.5,4.38 a 6.49,6.49 0 0 0 0,10.24 6.49,6.49 0 0 0 0,-10.24 z" />
      </g>
    </g>
  </g>
</svg>
