<svg width="32" height="32" viewBox="0 0 32 32" fill="none" xmlns="http://www.w3.org/2000/svg">
<path d="M27.9364 14.4359C28.902 14.4359 29.3051 13.1953 28.5208 12.6234L16.5864 3.94219C16.416 3.81732 16.2102 3.75 15.9989 3.75C15.7876 3.75 15.5818 3.81732 15.4114 3.94219L3.47702 12.6234C2.69264 13.1922 3.09577 14.4359 4.06452 14.4359H5.99889V26.1234H3.74889C3.61139 26.1234 3.49889 26.2359 3.49889 26.3734V27.9984C3.49889 28.1359 3.61139 28.2484 3.74889 28.2484H28.2489C28.3864 28.2484 28.4989 28.1359 28.4989 27.9984V26.3734C28.4989 26.2359 28.3864 26.1234 28.2489 26.1234H25.9989V14.4359H27.9364ZM15.9989 6.14531L24.4708 12.3078H7.52702L15.9989 6.14531ZM8.24889 14.4359H11.9051V26.1234H8.24889V14.4359ZM14.1551 14.4359H17.8114V26.1234H14.1551V14.4359ZM23.7489 26.1234H20.0614V14.4359H23.7489V26.1234Z" fill="black"/>
</svg>
