<svg width="24" height="24" viewBox="0 0 24 24" fill="none" xmlns="http://www.w3.org/2000/svg">
<path d="M12.0002 22C6.47724 22 2.00024 17.523 2.00024 12C2.00024 6.477 6.47724 2 12.0002 2C17.5232 2 22.0002 6.477 22.0002 12C22.0002 17.523 17.5232 22 12.0002 22ZM12.0002 20C14.122 20 16.1568 19.1571 17.6571 17.6569C19.1574 16.1566 20.0002 14.1217 20.0002 12C20.0002 9.87827 19.1574 7.84344 17.6571 6.34315C16.1568 4.84285 14.122 4 12.0002 4C9.87851 4 7.84368 4.84285 6.34339 6.34315C4.8431 7.84344 4.00024 9.87827 4.00024 12C4.00024 14.1217 4.8431 16.1566 6.34339 17.6569C7.84368 19.1571 9.87851 20 12.0002 20ZM9.00024 8H15.0002L17.5002 11.5L12.0002 17L6.50024 11.5L9.00024 8ZM10.0302 10L9.11024 11.29L12.0002 14.18L14.8902 11.29L13.9702 10H10.0302Z" fill="#808080"/>
</svg>
