<svg width="16" height="17" viewBox="0 0 16 17" fill="none" xmlns="http://www.w3.org/2000/svg">
<path d="M8 1.23584C4.13438 1.23584 1 4.37021 1 8.23584C1 12.1015 4.13438 15.2358 8 15.2358C11.8656 15.2358 15 12.1015 15 8.23584C15 4.37021 11.8656 1.23584 8 1.23584ZM8 14.0483C4.79063 14.0483 2.1875 11.4452 2.1875 8.23584C2.1875 5.02646 4.79063 2.42334 8 2.42334C11.2094 2.42334 13.8125 5.02646 13.8125 8.23584C13.8125 11.4452 11.2094 14.0483 8 14.0483Z" fill="black"/>
<path d="M7.25 5.48584C7.25 5.68475 7.32902 5.87552 7.46967 6.01617C7.61032 6.15682 7.80109 6.23584 8 6.23584C8.19891 6.23584 8.38968 6.15682 8.53033 6.01617C8.67098 5.87552 8.75 5.68475 8.75 5.48584C8.75 5.28693 8.67098 5.09616 8.53033 4.95551C8.38968 4.81486 8.19891 4.73584 8 4.73584C7.80109 4.73584 7.61032 4.81486 7.46967 4.95551C7.32902 5.09616 7.25 5.28693 7.25 5.48584ZM8.375 7.23584H7.625C7.55625 7.23584 7.5 7.29209 7.5 7.36084V11.6108C7.5 11.6796 7.55625 11.7358 7.625 11.7358H8.375C8.44375 11.7358 8.5 11.6796 8.5 11.6108V7.36084C8.5 7.29209 8.44375 7.23584 8.375 7.23584Z" fill="black"/>
</svg>
