<svg width="24" height="24" viewBox="0 0 24 24" fill="none" xmlns="http://www.w3.org/2000/svg">
<path d="M22.5832 10.3827L19.9683 7.76784L20.6249 7.11084V6.17334L17.8274 3.37547H16.8899L16.2329 4.03247L13.6177 1.41684C12.7282 0.527719 11.272 0.527719 10.3822 1.41684L7.76691 4.03209L7.11066 3.37547H6.17241L3.37491 6.17409V7.11159L4.03191 7.76822L1.41741 10.3827C0.527531 11.2726 0.527531 12.7287 1.41741 13.6178L4.03228 16.2331L3.37491 16.8901V17.8276L6.17278 20.6255H7.11103L7.76803 19.9681L10.3825 22.5826C11.2724 23.4725 12.7285 23.4725 13.618 22.5826L16.2325 19.9681L16.8903 20.6255H17.8278L20.6249 17.8283V16.8901L19.9679 16.2327L22.5832 13.6175C23.4723 12.7283 23.4723 11.2726 22.5832 10.3827ZM21.5245 13.4566L19.3582 15.6226L19.111 15.3755H18.1728L15.3749 18.1741V19.1116L15.622 19.3587L13.4564 21.524C12.6558 22.3253 11.3448 22.3253 10.5438 21.524L8.37778 19.358L8.62491 19.1108V18.1733L5.82741 15.3755H4.88991L4.64241 15.623L2.47603 13.4566C1.67466 12.656 1.67466 11.345 2.47603 10.5436L4.64166 8.37759L4.88991 8.62547H5.82741L8.62491 5.82834V4.89009L8.37703 4.64222L10.5438 2.47547C11.3448 1.67484 12.6558 1.67484 13.4564 2.47547L15.6228 4.64222L15.3749 4.89009V5.82759L18.1728 8.62547H19.111L19.3589 8.37759L21.5245 10.5436C22.3252 11.345 22.3252 12.656 21.5245 13.4566Z" fill="#808080"/>
<path d="M13.341 10.0875L12.4313 9.17775C12.3166 9.06369 12.1615 8.99965 11.9998 8.99965C11.8381 8.99965 11.683 9.06369 11.5684 9.17775L10.6583 10.0879L7.875 7.875L10.0875 10.659L9.17775 11.5688C9.06369 11.6834 8.99965 11.8385 8.99965 12.0002C8.99965 12.1619 9.06369 12.317 9.17775 12.4316L10.0875 13.3414L7.875 16.1243L10.6583 13.9117L11.5688 14.8223C11.6834 14.9363 11.8385 15.0003 12.0002 15.0003C12.1619 15.0003 12.317 14.9363 12.4316 14.8223L13.3417 13.9121L16.125 16.125L13.9125 13.3414L14.8226 12.4313C14.9367 12.3166 15.0007 12.1615 15.0007 11.9998C15.0007 11.8381 14.9367 11.683 14.8226 11.5684L13.9125 10.6583L16.125 7.875L13.341 10.0875Z" fill="#808080"/>
</svg>
