<svg width="32" height="30" viewBox="0 0 32 30" fill="none" xmlns="http://www.w3.org/2000/svg">
<path d="M28.0411 4.29729C28.9354 5.0927 29.4378 6.17124 29.4378 7.29581C29.4378 8.42037 28.9354 9.49891 28.0411 10.2943L24.0517 13.8404C22.9933 13.7633 21.928 13.8581 20.9077 14.1201L23.9197 11.444L20.0011 7.95951L6.7504 19.7402C6.62765 19.8493 6.53897 19.9849 6.49306 20.1337L5.09306 24.6967L10.2264 23.4522C10.3938 23.4114 10.5463 23.3326 10.6691 23.2235L15.0117 19.3634C14.7153 20.2695 14.6086 21.2164 14.6971 22.1568L12.0837 24.4798C11.7142 24.8083 11.2546 25.0452 10.7504 25.1672L3.93039 26.8205C3.76052 26.8614 3.58151 26.8618 3.41144 26.8215C3.24138 26.7812 3.08629 26.7017 2.96184 26.5911C2.83739 26.4805 2.74799 26.3426 2.70267 26.1915C2.65735 26.0403 2.65771 25.8812 2.70373 25.7302L4.56239 19.6668C4.69965 19.2186 4.96623 18.81 5.33573 18.4816L21.2931 4.29729C21.7361 3.90334 22.2621 3.59084 22.841 3.37763C23.4199 3.16443 24.0404 3.05469 24.6671 3.05469C25.2937 3.05469 25.9142 3.16443 26.4931 3.37763C27.072 3.59084 27.598 3.90334 28.0411 4.29729ZM22.7077 5.55358L21.4144 6.70321L25.3331 10.1877L26.6264 9.03803C26.8838 8.80931 27.088 8.53778 27.2273 8.23892C27.3666 7.94006 27.4384 7.61973 27.4384 7.29622C27.4385 6.97272 27.3669 6.65237 27.2277 6.35347C27.0885 6.05457 26.8844 5.78297 26.6271 5.55418C26.3698 5.32538 26.0643 5.14388 25.7281 5.02003C25.3918 4.89618 25.0315 4.83241 24.6675 4.83235C24.3036 4.8323 23.9432 4.89596 23.6069 5.01971C23.2707 5.14346 22.9651 5.32487 22.7077 5.55358ZM19.0384 17.3402C19.1381 17.6467 19.1672 17.968 19.1238 18.2847C19.0805 18.6014 18.9657 18.9071 18.7863 19.1834C18.6069 19.4598 18.3666 19.7011 18.0798 19.8929C17.7929 20.0847 17.4655 20.223 17.1171 20.2997L16.3384 20.4703C16.2136 21.1801 16.2163 21.9029 16.3464 22.612L17.0664 22.766C17.4178 22.8413 17.7484 22.9792 18.038 23.1716C18.3276 23.3639 18.5702 23.6065 18.751 23.8848C18.9318 24.163 19.0471 24.471 19.0899 24.7901C19.1326 25.1092 19.102 25.4326 18.9997 25.7408L18.7504 26.4899C19.3371 26.9474 20.0037 27.3183 20.7291 27.5814L21.3877 26.9675C21.6368 26.7346 21.9366 26.5491 22.2689 26.4224C22.6011 26.2957 22.9589 26.2304 23.3204 26.2304C23.6819 26.2304 24.0397 26.2957 24.3719 26.4224C24.7042 26.5491 25.004 26.7346 25.2531 26.9675L25.9171 27.5897C26.639 27.3288 27.3072 26.9631 27.8944 26.5077L27.6304 25.6946C27.5309 25.3881 27.5021 25.0669 27.5456 24.7503C27.5891 24.4336 27.704 24.128 27.8835 23.8518C28.0631 23.5756 28.3035 23.3345 28.5903 23.1428C28.8772 22.9511 29.2047 22.8129 29.5531 22.7364L30.3304 22.5657C30.4553 21.8556 30.4526 21.1323 30.3224 20.4229L29.6024 20.2688C29.251 20.1936 28.9204 20.0556 28.6308 19.8633C28.3412 19.671 28.0986 19.4283 27.9178 19.1501C27.737 18.8719 27.6217 18.5638 27.5789 18.2448C27.5362 17.9257 27.5668 17.6022 27.6691 17.294L27.9184 16.5474C27.3318 16.0876 26.6631 15.7178 25.9397 15.4534L25.2824 16.0685C25.0333 16.3016 24.7334 16.4873 24.401 16.6141C24.0687 16.7409 23.7108 16.8063 23.3491 16.8063C22.9874 16.8063 22.6294 16.7409 22.2971 16.6141C21.9647 16.4873 21.6648 16.3016 21.4157 16.0685L20.7517 15.4463C20.0264 15.7071 19.3597 16.0745 18.7744 16.5272L19.0384 17.3402ZM23.3344 23.2958C22.2677 23.2958 21.4011 22.4994 21.4011 21.518C21.4011 20.5355 22.2677 19.7402 23.3344 19.7402C24.4011 19.7402 25.2677 20.5355 25.2677 21.518C25.2677 22.4994 24.4011 23.2958 23.3344 23.2958Z" fill="#594E45"/>
</svg>
