<svg width="17" height="16" viewBox="0 0 17 16" fill="none" xmlns="http://www.w3.org/2000/svg">
<path d="M5.77786 8.88889C6.30829 8.88889 6.817 9.0996 7.19207 9.47468C7.56715 9.84975 7.77786 10.3585 7.77786 10.8889V14C7.77786 14.5304 7.56715 15.0391 7.19207 15.4142C6.817 15.7893 6.30829 16 5.77786 16H2.66675C2.13632 16 1.62761 15.7893 1.25253 15.4142C0.877462 15.0391 0.666748 14.5304 0.666748 14V10.8889C0.666748 10.3585 0.877462 9.84975 1.25253 9.47468C1.62761 9.0996 2.13632 8.88889 2.66675 8.88889H5.77786ZM14.6667 8.88889C15.1972 8.88889 15.7059 9.0996 16.081 9.47468C16.456 9.84975 16.6667 10.3585 16.6667 10.8889V14C16.6667 14.5304 16.456 15.0391 16.081 15.4142C15.7059 15.7893 15.1972 16 14.6667 16H11.5556C11.0252 16 10.5165 15.7893 10.1414 15.4142C9.76635 15.0391 9.55564 14.5304 9.55564 14V10.8889C9.55564 10.3585 9.76635 9.84975 10.1414 9.47468C10.5165 9.0996 11.0252 8.88889 11.5556 8.88889H14.6667ZM5.77786 10.2222H2.66675C2.48994 10.2222 2.32037 10.2925 2.19534 10.4175C2.07032 10.5425 2.00008 10.7121 2.00008 10.8889V14C2.00008 14.368 2.29875 14.6667 2.66675 14.6667H5.77786C5.95467 14.6667 6.12424 14.5964 6.24926 14.4714C6.37429 14.3464 6.44453 14.1768 6.44453 14V10.8889C6.44453 10.7121 6.37429 10.5425 6.24926 10.4175C6.12424 10.2925 5.95467 10.2222 5.77786 10.2222ZM14.6667 10.2222H11.5556C11.3788 10.2222 11.2093 10.2925 11.0842 10.4175C10.9592 10.5425 10.889 10.7121 10.889 10.8889V14C10.889 14.368 11.1876 14.6667 11.5556 14.6667H14.6667C14.8436 14.6667 15.0131 14.5964 15.1382 14.4714C15.2632 14.3464 15.3334 14.1768 15.3334 14V10.8889C15.3334 10.7121 15.2632 10.5425 15.1382 10.4175C15.0131 10.2925 14.8436 10.2222 14.6667 10.2222ZM5.77786 0C6.30829 0 6.817 0.210714 7.19207 0.585786C7.56715 0.960859 7.77786 1.46957 7.77786 2V5.11111C7.77786 5.64154 7.56715 6.15025 7.19207 6.52532C6.817 6.9004 6.30829 7.11111 5.77786 7.11111H2.66675C2.13632 7.11111 1.62761 6.9004 1.25253 6.52532C0.877462 6.15025 0.666748 5.64154 0.666748 5.11111V2C0.666748 1.46957 0.877462 0.960859 1.25253 0.585786C1.62761 0.210714 2.13632 0 2.66675 0H5.77786ZM14.6667 0C15.1972 0 15.7059 0.210714 16.081 0.585786C16.456 0.960859 16.6667 1.46957 16.6667 2V5.11111C16.6667 5.64154 16.456 6.15025 16.081 6.52532C15.7059 6.9004 15.1972 7.11111 14.6667 7.11111H11.5556C11.0252 7.11111 10.5165 6.9004 10.1414 6.52532C9.76635 6.15025 9.55564 5.64154 9.55564 5.11111V2C9.55564 1.46957 9.76635 0.960859 10.1414 0.585786C10.5165 0.210714 11.0252 0 11.5556 0H14.6667ZM5.77786 1.33333H2.66675C2.48994 1.33333 2.32037 1.40357 2.19534 1.5286C2.07032 1.65362 2.00008 1.82319 2.00008 2V5.11111C2.00008 5.47911 2.29875 5.77778 2.66675 5.77778H5.77786C5.95467 5.77778 6.12424 5.70754 6.24926 5.58252C6.37429 5.45749 6.44453 5.28792 6.44453 5.11111V2C6.44453 1.82319 6.37429 1.65362 6.24926 1.5286C6.12424 1.40357 5.95467 1.33333 5.77786 1.33333ZM14.6667 1.33333H11.5556C11.3788 1.33333 11.2093 1.40357 11.0842 1.5286C10.9592 1.65362 10.889 1.82319 10.889 2V5.11111C10.889 5.47911 11.1876 5.77778 11.5556 5.77778H14.6667C14.8436 5.77778 15.0131 5.70754 15.1382 5.58252C15.2632 5.45749 15.3334 5.28792 15.3334 5.11111V2C15.3334 1.82319 15.2632 1.65362 15.1382 1.5286C15.0131 1.40357 14.8436 1.33333 14.6667 1.33333Z" fill="white"/>
</svg>
