<svg width="55" height="54" viewBox="0 0 55 54" fill="none" xmlns="http://www.w3.org/2000/svg">
<mask id="mask0" style="mask-type:alpha" maskUnits="userSpaceOnUse" x="0" y="0" width="55" height="54">
<rect x="0.993164" width="54" height="54" fill="#C4C4C4"/>
</mask>
<g mask="url(#mask0)">
<path d="M55 27C55 41.9117 42.9117 54 28 54C13.0883 54 1 41.9117 1 27C1 12.0883 13.0883 0 28 0C42.9117 0 55 12.0883 55 27ZM3.7 27C3.7 40.4205 14.5795 51.3 28 51.3C41.4205 51.3 52.3 40.4205 52.3 27C52.3 13.5795 41.4205 2.7 28 2.7C14.5795 2.7 3.7 13.5795 3.7 27Z" fill="#E8DBD3"/>
<path d="M35.2783 0.998627C39.8424 2.27598 43.9899 4.73224 47.3038 8.12052C50.6178 11.5088 52.9815 15.7097 54.1573 20.301C55.3331 24.8923 55.2797 29.7123 54.0023 34.2764C52.725 38.8405 50.2687 42.988 46.8805 46.3019L44.9926 44.3717C48.042 41.3891 50.2526 37.6564 51.4023 33.5487C52.5519 29.441 52.6 25.1031 51.5417 20.9709C50.4835 16.8387 48.3562 13.0579 45.3736 10.0084C42.391 6.95897 38.6583 4.74834 34.5506 3.59872L35.2783 0.998627Z" fill="#5E4D45"/>
<path d="M47.8334 45.322C44.6172 48.8033 40.5414 51.3766 36.0155 52.7834C31.4896 54.1902 26.6731 54.3809 22.0502 53.3363C17.4272 52.2916 13.1607 50.0485 9.67947 46.8324C6.19821 43.6162 3.62485 39.5404 2.21806 35.0145L4.79638 34.2131C6.06249 38.2864 8.37851 41.9547 11.5116 44.8492C14.6448 47.7437 18.4846 49.7625 22.6453 50.7027C26.8059 51.6428 31.1407 51.4712 35.214 50.2051C39.2873 48.939 42.9556 46.623 45.8501 43.4899L47.8334 45.322Z" fill="#5E4D45"/>
<path d="M33.7885 0.623281C34.3408 0.744504 34.8893 0.883055 35.433 1.03873L34.6898 3.63442C34.2005 3.49432 33.7069 3.36963 33.2097 3.26052L33.7885 0.623281Z" fill="#FAF7F6"/>
<path d="M46.6696 46.4949C46.2611 46.8861 45.8405 47.2644 45.4084 47.6291L43.6669 45.5658C44.0558 45.2375 44.4344 44.8971 44.802 44.545L46.6696 46.4949Z" fill="#FAF7F6"/>
<path d="M2.82835 36.7802C2.62344 36.2531 2.43514 35.7197 2.26374 35.1807L4.83674 34.3624C4.991 34.8474 5.16047 35.3275 5.34489 35.8019L2.82835 36.7802Z" fill="#FAF7F6"/>
</g>
<path opacity="0.8" d="M16.386 30.074V30.998H23.05V29.878H18.136L21.244 26.672C21.524 26.392 21.762 26.112 21.972 25.86C22.182 25.608 22.364 25.356 22.504 25.104C22.644 24.852 22.756 24.6 22.84 24.334C22.91 24.068 22.952 23.774 22.952 23.466C22.952 23.074 22.868 22.71 22.728 22.36C22.574 22.01 22.364 21.702 22.098 21.436C21.818 21.17 21.482 20.96 21.09 20.806C20.698 20.652 20.25 20.568 19.774 20.568C19.354 20.568 18.976 20.638 18.626 20.764C18.262 20.89 17.94 21.058 17.66 21.282C17.366 21.506 17.114 21.772 16.918 22.08C16.722 22.388 16.568 22.71 16.47 23.046L17.646 23.368C17.828 22.85 18.108 22.444 18.472 22.164C18.836 21.884 19.27 21.73 19.774 21.73C20.04 21.73 20.292 21.786 20.53 21.87C20.768 21.954 20.978 22.08 21.16 22.234C21.328 22.388 21.468 22.57 21.58 22.78C21.678 22.99 21.734 23.214 21.734 23.466C21.734 23.886 21.608 24.278 21.37 24.642C21.132 25.006 20.838 25.37 20.474 25.762L16.386 30.074ZM30.2261 20.708L24.8641 30.998H26.1521L31.5141 20.708H30.2261ZM35.4948 25.104V26.154H35.7748C35.8588 26.154 35.9568 26.168 36.0688 26.168C36.8108 26.196 37.3988 26.378 37.8188 26.714C38.2388 27.05 38.4628 27.512 38.4628 28.1C38.4628 28.38 38.3928 28.646 38.2808 28.87C38.1688 29.108 38.0008 29.304 37.8048 29.472C37.5948 29.64 37.3428 29.766 37.0628 29.85C36.7828 29.934 36.4748 29.976 36.1388 29.976C35.6628 29.976 35.2148 29.878 34.8088 29.668C34.4028 29.458 34.0948 29.164 33.8848 28.8L32.8348 29.346C33.1428 29.878 33.5908 30.312 34.1648 30.648C34.7388 30.984 35.3968 31.138 36.1388 31.138C36.6568 31.138 37.1328 31.068 37.5808 30.914C38.0148 30.76 38.3928 30.55 38.7008 30.27C39.0088 30.004 39.2608 29.682 39.4288 29.318C39.5968 28.954 39.6948 28.548 39.6948 28.1C39.6948 27.512 39.5408 27.008 39.2468 26.574C38.9528 26.14 38.5888 25.818 38.1548 25.594C38.5468 25.384 38.8688 25.09 39.1208 24.712C39.3728 24.334 39.5128 23.872 39.5128 23.34C39.5128 22.976 39.4288 22.612 39.2748 22.276C39.1208 21.94 38.9108 21.646 38.6308 21.394C38.3508 21.142 38.0288 20.946 37.6368 20.792C37.2448 20.652 36.8248 20.568 36.3628 20.568C35.6908 20.568 35.0888 20.722 34.5708 21.002C34.0528 21.282 33.6328 21.66 33.3248 22.136L34.2908 22.808C34.5008 22.486 34.7808 22.22 35.1308 22.024C35.4668 21.828 35.8868 21.73 36.3628 21.73C36.6148 21.73 36.8668 21.772 37.0908 21.842C37.3148 21.926 37.5248 22.024 37.6928 22.164C37.8608 22.304 38.0008 22.486 38.1128 22.682C38.2108 22.878 38.2668 23.102 38.2668 23.34C38.2668 23.844 38.0708 24.264 37.6928 24.586C37.3008 24.908 36.8108 25.076 36.1948 25.09C36.0548 25.104 35.9148 25.104 35.7888 25.104H35.4948Z" fill="#1F1913"/>
</svg>
