<svg width="64" height="64" viewBox="0 0 64 64" fill="none" xmlns="http://www.w3.org/2000/svg">
<circle cx="32" cy="32" r="30.5" stroke="#594E45" stroke-width="3"/>
<path d="M46.375 19.1875H39.8125V16.6875C39.8125 16.5156 39.6719 16.375 39.5 16.375H37.3125C37.1406 16.375 37 16.5156 37 16.6875V19.1875H27V16.6875C27 16.5156 26.8594 16.375 26.6875 16.375H24.5C24.3281 16.375 24.1875 16.5156 24.1875 16.6875V19.1875H17.625C16.9336 19.1875 16.375 19.7461 16.375 20.4375V46.375C16.375 47.0664 16.9336 47.625 17.625 47.625H46.375C47.0664 47.625 47.625 47.0664 47.625 46.375V20.4375C47.625 19.7461 47.0664 19.1875 46.375 19.1875ZM44.8125 44.8125H19.1875V29.9688H44.8125V44.8125ZM19.1875 27.3125V22H24.1875V23.875C24.1875 24.0469 24.3281 24.1875 24.5 24.1875H26.6875C26.8594 24.1875 27 24.0469 27 23.875V22H37V23.875C37 24.0469 37.1406 24.1875 37.3125 24.1875H39.5C39.6719 24.1875 39.8125 24.0469 39.8125 23.875V22H44.8125V27.3125H19.1875Z" fill="#594E45"/>
</svg>
