<svg width="151" height="14" viewBox="0 0 151 14" fill="none" xmlns="http://www.w3.org/2000/svg">
<path d="M69.495 0.0158691C65.6439 0.0158691 62.5029 3.15679 62.5029 7.00798C62.5029 10.8592 65.636 14.0001 69.495 14.0001C73.3462 14.0001 76.4871 10.8671 76.4871 7.00798C76.4871 3.15679 73.3462 0.0158691 69.495 0.0158691ZM69.495 12.84C66.2831 12.84 63.663 10.2278 63.663 7.00798C63.663 3.78813 66.2831 1.17596 69.495 1.17596C72.707 1.17596 75.3271 3.79603 75.3271 7.00798C75.3192 10.2278 72.707 12.84 69.495 12.84Z" fill="#5D4F46"/>
<path d="M7 0H0.00789195V6.80271C1.80805e-07 6.86584 0 6.92108 0 6.98422C0 7.04735 1.80805e-07 7.11049 0.00789195 7.17362V13.9763H7C10.8512 13.9763 13.9921 10.8433 13.9921 6.98422C13.9842 3.13303 10.8512 0 7 0ZM11.3405 10.8749C10.2356 12.1139 8.64938 12.8162 6.99211 12.8162H1.16009V1.16009H6.99211C8.64938 1.16009 10.2277 1.87035 11.3326 3.10147C12.2954 4.16685 12.8162 5.54792 12.8162 6.98422C12.8241 8.42841 12.2954 9.80947 11.3405 10.8749Z" fill="#5D4F46"/>
<path d="M102.372 0H95.38V6.8027C95.3721 6.86584 95.3721 6.92897 95.3721 6.99211C95.3721 7.05524 95.3721 7.11838 95.38 7.18151V13.9842H102.372C106.223 13.9842 109.364 10.8512 109.364 6.99211C109.364 3.13303 106.231 0 102.372 0ZM106.72 10.8749C105.616 12.1139 104.029 12.8162 102.372 12.8162H96.5401V1.16009H102.372C104.029 1.16009 105.608 1.87035 106.713 3.10147C107.675 4.16685 108.204 5.54791 108.204 6.98422C108.204 8.42841 107.675 9.80947 106.72 10.8749Z" fill="#5D4F46"/>
<path d="M147.134 12.8319C149.076 11.5535 150.267 9.39113 150.267 6.99992C150.267 3.14084 147.134 0.0078125 143.275 0.0078125C139.424 0.0078125 136.283 3.14874 136.283 6.99992C136.283 10.6696 139.132 13.7158 142.786 13.9762L142.818 13.992H148.918L148.997 13.9526C149.265 13.8026 149.533 13.6369 149.786 13.4475L150.591 12.8398H147.134V12.8319ZM137.443 6.99203C137.443 3.78008 140.063 1.16001 143.275 1.16001C146.487 1.16001 149.107 3.77219 149.107 6.99203C149.107 10.204 146.495 12.824 143.275 12.824C140.063 12.824 137.443 10.2119 137.443 6.99203Z" fill="#5D4F46"/>
<path d="M33.8795 5.24014C33.0903 2.15445 30.3045 0 27.1083 0C23.9122 0 21.1342 2.15445 20.3372 5.24014C20.1872 5.80834 20.1162 6.39233 20.1162 6.98422V13.9763H21.2763V7.56032H32.9403V13.9763H34.1004V7.17362C34.1083 7.11049 34.1083 7.05524 34.1083 6.99211C34.1083 6.92897 34.1083 6.86584 34.1004 6.80271C34.0846 6.28185 34.0057 5.76099 33.8795 5.24014ZM21.3 6.41601C21.3158 6.28185 21.3315 6.15558 21.3552 6.02142C21.5367 4.94025 22.026 3.9301 22.76 3.10936C22.902 2.95152 23.0519 2.80158 23.2177 2.65164C24.2831 1.68884 25.6641 1.16009 27.1004 1.16009C28.5367 1.16009 29.9178 1.68884 30.9832 2.64374C31.1489 2.79369 31.2988 2.93574 31.4409 3.10147C32.1827 3.9301 32.672 4.93236 32.8535 6.02142C32.8772 6.14769 32.893 6.28185 32.9009 6.41601H21.3Z" fill="#5D4F46"/>
<path d="M17.6303 0H16.4702V13.9842H17.6303V0Z" fill="#5D4F46"/>
<path d="M118.621 0H117.461V13.9842H118.621V0Z" fill="#5D4F46"/>
<path d="M133.229 2.29651C131.903 0.836528 130.017 0 128.052 0C124.2 0 121.06 3.14092 121.06 6.99211C121.06 10.8433 124.193 13.9842 128.052 13.9842C130.017 13.9842 131.903 13.1477 133.229 11.6956C133.402 11.5062 133.576 11.2931 133.734 11.0643L133.797 10.9775V9.95941L133.166 9.79369C133.031 10.0383 132.874 10.2751 132.708 10.4961C131.595 11.9718 129.898 12.8241 128.052 12.8241C124.84 12.8241 122.22 10.2119 122.22 6.99211C122.22 3.78016 124.832 1.16009 128.052 1.16009C129.898 1.16009 131.595 2.00451 132.708 3.48816C132.874 3.70913 133.031 3.94588 133.166 4.19053L133.797 4.0248V3.00676L133.734 2.91996C133.576 2.69899 133.41 2.48591 133.229 2.29651Z" fill="#5D4F46"/>
<path d="M92.7047 5.24014C91.9155 2.15445 89.1297 0 85.9335 0C82.7373 0 79.9594 2.15445 79.1624 5.24014C79.0124 5.80045 78.9414 6.39233 78.9414 6.98422V13.9763H80.1015V6.98422C80.1015 6.66855 80.1252 6.33709 80.1804 6.01353C80.3619 4.93236 80.8512 3.92221 81.5851 3.10147C81.7272 2.94363 81.8771 2.79369 82.0429 2.64374C83.1083 1.68095 84.4893 1.1522 85.9256 1.1522C87.3619 1.1522 88.743 1.68095 89.8084 2.63585C89.9741 2.78579 90.124 2.92785 90.2661 3.09357C91.0079 3.92221 91.4972 4.92446 91.6787 6.01353C91.734 6.33709 91.7576 6.66066 91.7576 6.98422V13.9763H92.9177V7.17362C92.9256 7.11049 92.9256 7.04735 92.9256 6.98422C92.9256 6.92108 92.9256 6.85795 92.9177 6.79481C92.9098 6.28185 92.8388 5.76099 92.7047 5.24014Z" fill="#5D4F46"/>
<path d="M59.8037 5.24014C59.0145 2.15445 56.2287 0 53.0326 0C51.2727 0 49.6154 0.647125 48.3212 1.823C47.0269 0.647125 45.3696 0 43.6098 0C40.4136 0 37.6357 2.15445 36.8386 5.24014C36.6887 5.80834 36.6177 6.39233 36.6177 6.98422V13.9763H37.7778V6.98422C37.7778 6.66066 37.8014 6.33709 37.8567 6.01353C38.0382 4.93236 38.5275 3.92221 39.2614 3.10147C39.4035 2.93574 39.5534 2.79369 39.7191 2.64374C40.7845 1.68095 42.1656 1.1522 43.6019 1.1522C45.0382 1.1522 46.4193 1.68095 47.4846 2.63585C47.5715 2.70688 47.6504 2.78579 47.7372 2.8726V13.9763H48.8973V2.8805C48.9841 2.79369 49.063 2.71477 49.1419 2.64374C50.2073 1.68095 51.5884 1.1522 53.0326 1.1522C54.4689 1.1522 55.8499 1.68095 56.9153 2.63585C57.081 2.78579 57.231 2.92785 57.373 3.09357C58.1149 3.92221 58.6041 4.92446 58.7857 6.01353C58.8409 6.33709 58.8646 6.66855 58.8646 6.98422V13.9763H60.0247V7.17362C60.0326 7.11049 60.0326 7.05524 60.0326 6.98422C60.0326 6.92108 60.0326 6.85795 60.0247 6.79481C60.0089 6.28185 59.93 5.76099 59.8037 5.24014Z" fill="#5D4F46"/>
</svg>
