<svg width="24" height="25" viewBox="0 0 24 25" fill="none" xmlns="http://www.w3.org/2000/svg">
<g id="I / Math / plus">
<path id="plus" d="M6.54583 12.5654H11.1413V17.1609C11.1413 17.6279 11.5255 18.0197 12.0001 18.0197C12.4747 18.0197 12.8589 17.6279 12.8589 17.1609V12.5654H17.4543C17.9214 12.5654 18.3131 12.1812 18.3131 11.7066C18.3131 11.232 17.9214 10.8478 17.4543 10.8478H12.8589V6.25237C12.8589 5.7853 12.4747 5.39355 12.0001 5.39355C11.5255 5.39355 11.1413 5.7853 11.1413 6.25237V10.8478H6.54583C6.07875 10.8478 5.68701 11.232 5.68701 11.7066C5.68701 12.1812 6.07875 12.5654 6.54583 12.5654Z" fill="#242424"/>
</g>
</svg>
