<svg width="24" height="24" viewBox="0 0 24 24" fill="none" xmlns="http://www.w3.org/2000/svg">
<path fill-rule="evenodd" clip-rule="evenodd" d="M7.27737 12.0001C7.27737 11.4804 7.36362 10.9822 7.51775 10.5149L4.8215 8.45605C4.296 9.52293 4 10.7252 4 12.0001C4 13.2739 4.29575 14.4753 4.82037 15.5416L7.51512 13.4787C7.3625 13.0136 7.27737 12.5172 7.27737 12.0001Z" fill="#FBBC05"/>
<path fill-rule="evenodd" clip-rule="evenodd" d="M12.0117 7.27275C13.1405 7.27275 14.1602 7.67275 14.9613 8.32725L17.2918 6C15.8717 4.76363 14.0509 4 12.0117 4C8.84565 4 6.12465 5.8105 4.82178 8.456L7.5179 10.5149C8.13915 8.62913 9.91003 7.27275 12.0117 7.27275Z" fill="#EA4335"/>
<path fill-rule="evenodd" clip-rule="evenodd" d="M12.0117 16.7272C9.91015 16.7272 8.13928 15.3709 7.51803 13.4851L4.82178 15.5436C6.12465 18.1895 8.84565 20 12.0117 20C13.9657 20 15.8313 19.3061 17.2314 18.0061L14.6722 16.0276C13.95 16.4825 13.0407 16.7272 12.0117 16.7272Z" fill="#34A853"/>
<path fill-rule="evenodd" clip-rule="evenodd" d="M19.6584 11.9999C19.6584 11.5272 19.5855 11.018 19.4762 10.5454H12.0112V13.6363H16.3082C16.0934 14.6902 15.5086 15.5003 14.6717 16.0275L17.231 18.006C18.7017 16.641 19.6584 14.6075 19.6584 11.9999Z" fill="#4285F4"/>
</svg>
