<svg width="55" height="54" viewBox="0 0 55 54" fill="none" xmlns="http://www.w3.org/2000/svg">
<mask id="mask0" style="mask-type:alpha" maskUnits="userSpaceOnUse" x="0" y="0" width="55" height="54">
<rect x="0.993164" width="54" height="54" fill="#C4C4C4"/>
</mask>
<g mask="url(#mask0)">
<path d="M55 27C55 41.9117 42.9117 54 28 54C13.0883 54 1 41.9117 1 27C1 12.0883 13.0883 0 28 0C42.9117 0 55 12.0883 55 27ZM3.7 27C3.7 40.4205 14.5795 51.3 28 51.3C41.4205 51.3 52.3 40.4205 52.3 27C52.3 13.5795 41.4205 2.7 28 2.7C14.5795 2.7 3.7 13.5795 3.7 27Z" fill="#E8DBD3"/>
<path d="M35.2783 0.998627C39.8424 2.27598 43.9899 4.73224 47.3038 8.12052C50.6178 11.5088 52.9815 15.7097 54.1573 20.301C55.3331 24.8923 55.2797 29.7123 54.0023 34.2764C52.725 38.8405 50.2687 42.988 46.8805 46.3019L44.9926 44.3717C48.042 41.3891 50.2526 37.6564 51.4023 33.5487C52.5519 29.441 52.6 25.1031 51.5417 20.9709C50.4835 16.8387 48.3562 13.0579 45.3736 10.0084C42.391 6.95897 38.6583 4.74834 34.5506 3.59872L35.2783 0.998627Z" fill="#5E4D45"/>
<path d="M47.8334 45.322C44.6172 48.8033 40.5414 51.3766 36.0155 52.7834C31.4896 54.1902 26.6731 54.3809 22.0502 53.3363C17.4272 52.2916 13.1607 50.0485 9.67947 46.8324C6.19821 43.6162 3.62485 39.5404 2.21806 35.0145L4.79638 34.2131C6.06249 38.2864 8.37851 41.9547 11.5116 44.8492C14.6448 47.7437 18.4846 49.7625 22.6453 50.7027C26.8059 51.6428 31.1407 51.4712 35.214 50.2051C39.2873 48.939 42.9556 46.623 45.8501 43.4899L47.8334 45.322Z" fill="#5E4D45"/>
<path d="M2.22596 35.0411C0.814328 30.5167 0.61851 25.7005 1.65819 21.0764C2.69788 16.4524 4.93642 12.1835 8.14884 8.69878C11.3613 5.21408 15.4343 2.63637 19.9587 1.22474C24.4831 -0.186896 29.2994 -0.382712 33.9234 0.65697L33.3311 3.29121C29.1695 2.35549 24.8349 2.53172 20.7629 3.80219C16.691 5.07267 13.0252 7.3926 10.134 10.5288C7.24283 13.6651 5.22814 17.5071 4.29243 21.6687C3.35671 25.8304 3.53295 30.165 4.80342 34.2369L2.22596 35.0411Z" fill="#5E4D45"/>
<path d="M33.7885 0.623281C34.3408 0.744504 34.8893 0.883055 35.433 1.03873L34.6898 3.63442C34.2005 3.49432 33.7069 3.36963 33.2097 3.26052L33.7885 0.623281Z" fill="#FAF7F6"/>
<path d="M46.6696 46.4949C46.2611 46.8861 45.8405 47.2644 45.4084 47.6291L43.6669 45.5658C44.0558 45.2375 44.4344 44.8971 44.802 44.545L46.6696 46.4949Z" fill="#FAF7F6"/>
<path d="M2.82835 36.7802C2.62344 36.2531 2.43514 35.7197 2.26374 35.1807L4.83674 34.3624C4.991 34.8474 5.16047 35.3275 5.34489 35.8019L2.82835 36.7802Z" fill="#FAF7F6"/>
</g>
</svg>
