<svg width="29" height="28" viewBox="0 0 29 28" fill="none" xmlns="http://www.w3.org/2000/svg">
<path d="M11.2037 21.0094C18.2481 21.0094 22.1004 15.1713 22.1004 10.1087C22.1004 9.94287 22.097 9.77783 22.0895 9.61347C22.8391 9.0709 23.486 8.3991 23.9999 7.62957C23.3137 7.93477 22.5752 8.14018 21.8006 8.23279C22.5913 7.7585 23.1983 7.00815 23.4847 6.11374C22.7329 6.55988 21.9105 6.87439 21.0528 7.0437C20.3539 6.29901 19.359 5.83325 18.2573 5.83325C16.1423 5.83325 14.4273 7.54899 14.4273 9.6639C14.4273 9.96457 14.4609 10.2569 14.5266 10.5375C11.3436 10.3773 8.52119 8.85273 6.63225 6.53462C6.29204 7.11929 6.11309 7.78379 6.11368 8.46024C6.11368 9.78944 6.78978 10.9628 7.81796 11.6493C7.20978 11.6307 6.61495 11.4664 6.08348 11.1701C6.08291 11.1862 6.08291 11.2019 6.08291 11.2191C6.08291 13.0745 7.40301 14.6236 9.1554 14.9746C8.82628 15.0643 8.48666 15.1096 8.14554 15.1094C7.89919 15.1094 7.65911 15.0852 7.42577 15.0404C7.91335 16.5626 9.32715 17.6704 11.0034 17.7013C9.6926 18.7291 8.04139 19.3413 6.24678 19.3413C5.94149 19.3415 5.63645 19.3238 5.33325 19.2882C7.0282 20.375 9.04078 21.0091 11.2039 21.0091" fill="black"/>
</svg>
