<svg width="24" height="24" viewBox="0 0 24 24" fill="none" xmlns="http://www.w3.org/2000/svg">
<path fill-rule="evenodd" clip-rule="evenodd" d="M17.6077 6.32515C16.1103 4.82656 14.119 4.00084 11.9975 4C7.62604 4 4.06825 7.55643 4.0665 11.9279C4.06592 13.3252 4.43113 14.6892 5.12513 15.8915L4 20L8.20431 18.8975C9.36268 19.5291 10.6669 19.862 11.9943 19.8625H11.9975C16.3685 19.8625 19.9266 16.3056 19.9284 11.9342C19.9292 9.81573 19.1051 7.82374 17.6077 6.32515ZM11.9975 18.5235H11.9948C10.812 18.523 9.65187 18.2054 8.63981 17.6049L8.39908 17.4621L5.90421 18.1164L6.57015 15.6847L6.4134 15.4354C5.75355 14.3861 5.40503 13.1735 5.40555 11.9284C5.407 8.295 8.36411 5.33905 12.0002 5.33905C13.7608 5.33972 15.4159 6.02607 16.6605 7.27164C17.905 8.51722 18.59 10.1729 18.5894 11.9337C18.5878 15.5673 15.6308 18.5235 11.9975 18.5235ZM15.6133 13.5881C15.4151 13.489 14.4409 13.0097 14.2592 12.9436C14.0776 12.8775 13.9455 12.8444 13.8133 13.0428C13.6812 13.2411 13.3015 13.6873 13.1858 13.8195C13.0703 13.9517 12.9547 13.9683 12.7565 13.8691C12.5583 13.7699 11.9198 13.5607 11.1629 12.8858C10.5738 12.3606 10.1761 11.7118 10.0605 11.5135C9.9449 11.3151 10.0482 11.2079 10.1474 11.1092C10.2365 11.0204 10.3456 10.8778 10.4447 10.7621C10.5437 10.6464 10.5767 10.5638 10.6428 10.4316C10.7089 10.2994 10.6758 10.1837 10.6263 10.0845C10.5767 9.98536 10.1804 9.01027 10.0153 8.61363C9.85445 8.22734 9.69107 8.2796 9.56943 8.27355C9.45397 8.26781 9.32173 8.26658 9.18964 8.26658C9.05753 8.26658 8.84285 8.31617 8.66119 8.51448C8.47955 8.71281 7.96765 9.19208 7.96765 10.1671C7.96765 11.1422 8.67771 12.0842 8.7768 12.2164C8.87587 12.3486 10.1741 14.3496 12.162 15.2077C12.6348 15.4118 13.0039 15.5337 13.2917 15.6251C13.7665 15.7758 14.1985 15.7545 14.5399 15.7035C14.9206 15.6467 15.7123 15.2243 15.8775 14.7615C16.0426 14.2988 16.0426 13.9021 15.9931 13.8195C15.9436 13.7369 15.8115 13.6873 15.6133 13.5881Z" fill="black"/>
</svg>
