<?xml version="1.0" encoding="UTF-8"?>
<!DOCTYPE svg PUBLIC "-//W3C//DTD SVG 1.1//EN" "http://www.w3.org/Graphics/SVG/1.1/DTD/svg11.dtd">
<!-- Creator: CorelDRAW X6 -->
<svg xmlns="http://www.w3.org/2000/svg" xml:space="preserve" width="4.12599in" height="3.32157in" version="1.1" style="shape-rendering:geometricPrecision; text-rendering:geometricPrecision; image-rendering:optimizeQuality; fill-rule:evenodd; clip-rule:evenodd"
viewBox="0 0 310576 250025"
 xmlns:xlink="http://www.w3.org/1999/xlink">
 <defs>
  <style>
   <![CDATA[
    .fil0 {fill:#5E4D46}
    .fil1 {fill:#BAB9B5}
   ]]>
  </style>
 </defs>
 <g id="Layer_x0020_1">
  <metadata id="CorelCorpID_0Corel-Layer"/>
  <g id="_551667776">
   <path class="fil0" d="M69879 73234c-7764,-62115 112584,-120348 151406,-15529 34940,-19411 89291,7764 89291,69879 0,62115 -42704,77644 -124230,73762 0,-11647 0,-23293 0,-23293 0,0 34940,0 54351,0 19411,0 50469,-15529 50469,-50469 0,-34940 -31058,-69879 -81526,-46586 -11647,-34940 -27175,-58233 -62115,-58233 -34940,0 -62115,27175 -62115,73762 -27176,-7764 -63632,7764 -63632,42704 0,34940 36456,38822 36456,38822l69879 0 0 23293c0,0 -65997,0 -77644,0 -11647,0 -50469,-11647 -50469,-62115 0,-50469 38822,-65997 69879,-65997z"/>
   <rect class="fil1" x="138629" y="228946" width="39277" height="21079"/>
   <rect class="fil0" x="138629" y="204379" width="39277" height="21079"/>
   <path class="fil0" d="M177197 166406l0 27176 -37438 0 0 -27176c0,0 -12228,0 -22335,0 -10107,0 -13989,-3882 -2342,-15529 11647,-11647 38822,-50469 38822,-50469 0,0 7347,-12499 17508,4638 10160,17136 25197,38067 32961,49713 7764,11647 3882,11647 -3882,11647 -7764,0 -23293,0 -23293,0z"/>
  </g>
 </g>
</svg>
