<svg width="55" height="55" viewBox="0 0 55 55" fill="none" xmlns="http://www.w3.org/2000/svg">
<mask id="mask0" style="mask-type:alpha" maskUnits="userSpaceOnUse" x="0" y="0" width="55" height="55">
<rect x="0.993164" y="0.00195312" width="54" height="54" fill="#C4C4C4"/>
</mask>
<g mask="url(#mask0)">
<path d="M55 27.002C55 41.9136 42.9117 54.002 28 54.002C13.0883 54.002 1 41.9136 1 27.002C1 12.0903 13.0883 0.00195312 28 0.00195312C42.9117 0.00195312 55 12.0903 55 27.002ZM3.7 27.002C3.7 40.4225 14.5795 51.302 28 51.302C41.4205 51.302 52.3 40.4225 52.3 27.002C52.3 13.5814 41.4205 2.70195 28 2.70195C14.5795 2.70195 3.7 13.5814 3.7 27.002Z" fill="#E8DBD3"/>
<path d="M35.2783 1.00058C39.8424 2.27794 43.9899 4.73419 47.3038 8.12247C50.6178 11.5107 52.9815 15.7117 54.1573 20.303C55.3331 24.8943 55.2797 29.7142 54.0023 34.2783C52.725 38.8425 50.2687 42.9899 46.8805 46.3039L44.9926 44.3736C48.042 41.3911 50.2526 37.6584 51.4023 33.5507C52.5519 29.443 52.6 25.105 51.5417 20.9728C50.4835 16.8406 48.3562 13.0598 45.3736 10.0104C42.391 6.96092 38.6583 4.75029 34.5506 3.60067L35.2783 1.00058Z" fill="#5E4D45"/>
<path d="M33.7885 0.625234C34.3408 0.746457 34.8893 0.885008 35.433 1.04068L34.6898 3.63638C34.2005 3.49627 33.7069 3.37158 33.2097 3.26248L33.7885 0.625234Z" fill="#FAF7F6"/>
<path d="M46.6696 46.4969C46.2611 46.8881 45.8405 47.2663 45.4084 47.6311L43.6669 45.5678C44.0558 45.2395 44.4344 44.8991 44.802 44.547L46.6696 46.4969Z" fill="#FAF7F6"/>
<path d="M2.82835 36.7821C2.62344 36.255 2.43514 35.7216 2.26374 35.1827L4.83674 34.3643C4.991 34.8494 5.16047 35.3295 5.34489 35.8039L2.82835 36.7821Z" fill="#FAF7F6"/>
</g>
</svg>
