<svg width="16" height="16" viewBox="0 0 16 16" fill="none" xmlns="http://www.w3.org/2000/svg">
<path d="M1.99908 10.6658H13.9991C14.1206 10.6654 14.2397 10.6319 14.3435 10.5688C14.4474 10.5058 14.5321 10.4157 14.5885 10.3081C14.645 10.2005 14.671 10.0795 14.6638 9.95824C14.6566 9.83696 14.6165 9.71993 14.5477 9.61976L8.54775 0.953094C8.29908 0.59376 7.70041 0.59376 7.45108 0.953094L1.45108 9.61976C1.38163 9.71972 1.3409 9.83681 1.33332 9.95829C1.32574 10.0798 1.3516 10.201 1.40809 10.3088C1.46458 10.4167 1.54953 10.5069 1.65372 10.5699C1.75792 10.6328 1.87736 10.666 1.99908 10.6658Z" fill="black"/>
<rect x="7" y="8" width="2" height="8" fill="black"/>
</svg>
