<svg width="38" height="24" viewBox="0 0 38 24" fill="none" xmlns="http://www.w3.org/2000/svg">
<rect opacity="0.98" width="38" height="24" rx="2" fill="white"/>
<path fill-rule="evenodd" clip-rule="evenodd" d="M8.08333 9.08453H7V12.855H8.06926C8.64623 12.855 9.05414 12.7283 9.41998 12.4189C9.84209 12.0672 10.1093 11.5325 10.1093 10.9697C10.1093 9.8584 9.27919 9.08453 8.08333 9.08453ZM8.94161 11.9264C8.70249 12.1235 8.40684 12.2219 7.92861 12.2219H7.73169V9.73168H7.92861C8.40684 9.73168 8.68829 9.81607 8.94161 10.0271C9.19479 10.2521 9.34965 10.604 9.34965 10.9697C9.34951 11.3355 9.19479 11.7014 8.94161 11.9264ZM10.447 12.8552H11.1786V9.08453H10.447V12.8552ZM12.9794 10.5337C12.5292 10.3649 12.4026 10.2664 12.4026 10.0553C12.4026 9.81621 12.6417 9.64742 12.9513 9.64742C13.1763 9.64742 13.3593 9.73181 13.5422 9.9428L13.9362 9.4505C13.6125 9.16906 13.2327 9.0284 12.8247 9.0284C12.1494 9.0284 11.6429 9.4927 11.6429 10.1117C11.6429 10.6323 11.882 10.8856 12.5715 11.1388C12.867 11.2372 13.0077 11.3076 13.078 11.3498C13.2327 11.4483 13.3031 11.5889 13.3031 11.7437C13.3031 12.0533 13.0639 12.2783 12.7262 12.2783C12.3885 12.2783 12.0931 12.0955 11.9242 11.7719L11.46 12.2361C11.7978 12.7284 12.2057 12.9536 12.7684 12.9536C13.5281 12.9536 14.0629 12.4471 14.0629 11.7156C14.0627 11.1105 13.8096 10.8431 12.9794 10.5337ZM14.2879 10.9697C14.2879 12.0812 15.1603 12.9394 16.2857 12.9394C16.5952 12.9394 16.8766 12.883 17.2002 12.7283V11.856C16.9047 12.1513 16.6515 12.2781 16.3138 12.2781C15.5822 12.2781 15.0476 11.7294 15.0476 10.9696C15.0476 10.2521 15.5963 9.67528 16.2857 9.67528C16.6374 9.67528 16.9047 9.80187 17.2002 10.0974V9.23911C16.8906 9.07019 16.6234 9 16.2997 9C15.1883 9.00014 14.2879 9.88653 14.2879 10.9697Z" fill="black"/>
<path fill-rule="evenodd" clip-rule="evenodd" d="M19.4936 9C18.382 9 17.4815 9.87235 17.4815 10.9415C17.4815 12.0953 18.3398 12.9394 19.4936 12.9394C20.6188 12.9394 21.5054 12.0811 21.5054 10.9696C21.5055 9.87235 20.633 9 19.4936 9Z" fill="#DB8135"/>
<path fill-rule="evenodd" clip-rule="evenodd" d="M19.4936 9C18.382 9 17.4815 9.87235 17.4815 10.9415C17.4815 12.0953 18.3398 12.9394 19.4936 12.9394C20.6188 12.9394 21.5054 12.0811 21.5054 10.9696C21.5055 9.87235 20.633 9 19.4936 9ZM19.4936 10.9696H21.5054H19.4936Z" fill="#DB8135"/>
<path fill-rule="evenodd" clip-rule="evenodd" d="M19.4936 10.9696H21.5054C21.5054 9.87222 20.6329 9 19.4936 9C18.382 9 17.4815 9.87235 17.4815 10.9415C17.4815 12.0953 18.3398 12.9394 19.4936 12.9394C20.6188 12.9394 21.5054 12.0811 21.5054 10.9696H19.4936Z" fill="#DB8135"/>
<path fill-rule="evenodd" clip-rule="evenodd" d="M19.4936 10.9696H21.5054C21.5054 9.87222 20.6329 9 19.4936 9C18.382 9 17.4815 9.87235 17.4815 10.9415C17.4815 12.0953 18.3398 12.9394 19.4936 12.9394C20.6188 12.9394 21.5054 12.0811 21.5054 10.9696H19.4936Z" fill="#DB8137"/>
<path fill-rule="evenodd" clip-rule="evenodd" d="M19.4936 10.9696H21.5054C21.5054 9.87222 20.6329 9 19.4936 9C18.382 9 17.4815 9.87235 17.4815 10.9415C17.4815 12.0953 18.3398 12.9394 19.4936 12.9394C20.6188 12.9394 21.5054 12.0811 21.5054 10.9696H19.4936Z" fill="#DC8337"/>
<path fill-rule="evenodd" clip-rule="evenodd" d="M19.4936 10.9696H21.5054C21.5054 9.87222 20.6329 9 19.4936 9C18.382 9 17.4815 9.87235 17.4815 10.9415C17.4815 12.0953 18.3398 12.9394 19.4936 12.9394C20.6188 12.9394 21.5054 12.0811 21.5054 10.9696H19.4936Z" fill="#DC8539"/>
<path fill-rule="evenodd" clip-rule="evenodd" d="M19.4936 10.9696H21.5054C21.5054 9.87222 20.6329 9 19.4936 9C18.382 9 17.4815 9.87235 17.4815 10.9415C17.4815 12.0953 18.3398 12.9394 19.4936 12.9394C20.6188 12.9394 21.5054 12.0811 21.5054 10.9696H19.4936Z" fill="#DC853A"/>
<path fill-rule="evenodd" clip-rule="evenodd" d="M19.4936 10.9696H21.5054C21.5054 9.87222 20.6329 9 19.4936 9C18.382 9 17.4815 9.87235 17.4815 10.9415C17.4815 12.0953 18.3398 12.9394 19.4936 12.9394C20.6188 12.9394 21.5054 12.0811 21.5054 10.9696H19.4936Z" fill="#DC853C"/>
<path fill-rule="evenodd" clip-rule="evenodd" d="M19.4936 10.9696H21.5054C21.5054 9.87222 20.6329 9 19.4936 9C18.382 9 17.4815 9.87235 17.4815 10.9415C17.4815 12.0953 18.3398 12.9394 19.4936 12.9394C20.6188 12.9394 21.5054 12.0811 21.5054 10.9696H19.4936Z" fill="#DD873E"/>
<path fill-rule="evenodd" clip-rule="evenodd" d="M19.4936 10.9696H21.5054C21.5054 9.87222 20.6329 9 19.4936 9C18.382 9 17.4815 9.87235 17.4815 10.9415C17.4815 12.0953 18.3398 12.9394 19.4936 12.9394C20.6188 12.9394 21.5054 12.0811 21.5054 10.9696H19.4936Z" fill="#DD873E"/>
<path fill-rule="evenodd" clip-rule="evenodd" d="M19.4936 10.9696H21.5054C21.5054 9.87222 20.6329 9 19.4936 9C18.382 9 17.4815 9.87235 17.4815 10.9415C17.4815 12.0953 18.3398 12.9394 19.4936 12.9394C20.6188 12.9394 21.5054 12.0811 21.5054 10.9696H19.4936Z" fill="#DD883F"/>
<path fill-rule="evenodd" clip-rule="evenodd" d="M19.4936 10.9696H21.5054C21.5054 9.87222 20.6329 9 19.4936 9C18.382 9 17.4815 9.87235 17.4815 10.9415C17.4815 12.0953 18.3398 12.9394 19.4936 12.9394C20.6188 12.9394 21.5054 12.0811 21.5054 10.9696H19.4936Z" fill="#DD8841"/>
<path fill-rule="evenodd" clip-rule="evenodd" d="M19.4936 10.9696H21.5054C21.5054 9.87222 20.6329 9 19.4936 9C18.382 9 17.4815 9.87235 17.4815 10.9415C17.4815 12.0953 18.3398 12.9394 19.4936 12.9394C20.6188 12.9394 21.5054 12.0811 21.5054 10.9696H19.4936Z" fill="#DE8A41"/>
<path fill-rule="evenodd" clip-rule="evenodd" d="M19.4936 10.9696H21.5054C21.5054 9.87222 20.6329 9 19.4936 9C18.382 9 17.4815 9.87235 17.4815 10.9415C17.4815 12.0953 18.3398 12.9394 19.4936 12.9394C20.6188 12.9394 21.5054 12.0811 21.5054 10.9696H19.4936Z" fill="#DE8A43"/>
<path fill-rule="evenodd" clip-rule="evenodd" d="M19.4936 10.9696H21.5054C21.5054 9.87222 20.6329 9 19.4936 9C18.382 9 17.4815 9.87235 17.4815 10.9415C17.4815 12.0953 18.3398 12.9394 19.4936 12.9394C20.6188 12.9394 21.5054 12.0811 21.5054 10.9696H19.4936Z" fill="#DE8A44"/>
<path fill-rule="evenodd" clip-rule="evenodd" d="M19.4936 10.9696H21.5054C21.5054 9.87222 20.6329 9 19.4936 9C18.382 9 17.4815 9.87235 17.4815 10.9415C17.4815 12.0953 18.3398 12.9394 19.4936 12.9394C20.6188 12.9394 21.5054 12.0811 21.5054 10.9696H19.4936Z" fill="#DE8C46"/>
<path fill-rule="evenodd" clip-rule="evenodd" d="M19.4936 10.9697H21.5054H19.4936ZM21.5055 10.9697C21.5055 10.9527 21.5052 10.9356 21.5047 10.9185V10.9178C21.5043 10.9011 21.5037 10.8843 21.5028 10.8676V10.8662C21.5019 10.8498 21.5009 10.8334 21.4996 10.8171C21.4996 10.8164 21.4996 10.8157 21.4994 10.815C21.4982 10.7989 21.4969 10.7829 21.4954 10.7668C21.4951 10.7658 21.4951 10.765 21.4951 10.7641C21.4935 10.7483 21.4916 10.7326 21.4895 10.717V10.7165C21.4876 10.7016 21.4856 10.6867 21.4834 10.6718C21.4831 10.6703 21.4828 10.6688 21.4828 10.6672C21.4804 10.6525 21.478 10.6379 21.4753 10.6231L21.4745 10.6182L21.4703 10.5943L21.4647 10.5661L21.4618 10.5525C21.4593 10.5411 21.457 10.5296 21.4543 10.5183C21.4532 10.5129 21.4516 10.5077 21.4506 10.5024L21.4425 10.4705L21.4345 10.4404L21.4305 10.4257C21.4277 10.4152 21.4244 10.4048 21.4215 10.3944L21.4167 10.3782C21.1676 9.57478 20.4186 9 19.4937 9C18.6795 9 17.9788 9.46812 17.662 10.1386C17.5447 10.3952 17.4832 10.6737 17.4818 10.9558C17.4833 11.1996 17.5233 11.4294 17.5961 11.6401L17.6023 11.6577L17.6051 11.6651C17.6827 11.8757 17.7951 12.0718 17.9376 12.2452C18.2995 12.677 18.8506 12.9393 19.4937 12.9393C20.408 12.9393 21.1644 12.3729 21.4162 11.5642L21.429 11.5207V11.5206C21.4657 11.3913 21.4893 11.2587 21.4995 11.1247L21.4998 11.1244C21.5009 11.1075 21.5022 11.0904 21.5029 11.0734V11.0732C21.5046 11.0388 21.5054 11.0042 21.5055 10.9697Z" fill="#DF8E47"/>
<path fill-rule="evenodd" clip-rule="evenodd" d="M19.4936 10.9696H21.4914C21.4914 10.2043 21.0531 9.54188 20.4159 9.21085C20.1417 9.07593 19.8294 9 19.4936 9C19.0614 9 18.6617 9.13205 18.3338 9.35574C17.8275 9.71531 17.4955 10.3035 17.4955 10.9696C17.4955 11.7024 17.8973 12.3474 18.4908 12.6951C18.7821 12.852 19.1223 12.9394 19.4936 12.9394C19.9617 12.9394 20.3882 12.7908 20.7269 12.5376C21.1912 12.1705 21.4914 11.6029 21.4914 10.9696H19.4936Z" fill="#DF8E48"/>
<path fill-rule="evenodd" clip-rule="evenodd" d="M19.4935 10.9696H21.463C21.463 9.88629 20.5767 9 19.4935 9C19.4765 9 19.4597 9.00027 19.4429 9.00068H19.4415C18.3821 9.0284 17.5237 9.90377 17.5237 10.9696C17.5232 11.3821 17.6512 11.7845 17.8899 12.1208C18.1285 12.4572 18.4661 12.7108 18.8555 12.8466C19.0541 12.9071 19.2681 12.9396 19.4934 12.9396C19.7684 12.9396 20.029 12.8881 20.2661 12.7945C20.6219 12.6405 20.9249 12.3856 21.1376 12.0613C21.3503 11.737 21.4633 11.3576 21.4629 10.9698H19.4935V10.9696Z" fill="#DF8E4A"/>
<path fill-rule="evenodd" clip-rule="evenodd" d="M19.4935 10.9698H21.449C21.449 9.90056 20.5766 9.01416 19.4935 9.01416C18.4101 9.01416 17.5377 9.90056 17.5377 10.9698C17.5372 11.2268 17.5874 11.4814 17.6855 11.7189C17.7836 11.9564 17.9276 12.1722 18.1093 12.3539C18.2911 12.5357 18.5069 12.6797 18.7444 12.7778C18.982 12.8758 19.2365 12.926 19.4935 12.9255C19.7505 12.926 20.005 12.8758 20.2425 12.7777C20.48 12.6796 20.6958 12.5356 20.8775 12.3539C21.0592 12.1721 21.2033 11.9563 21.3013 11.7188C21.3994 11.4813 21.4496 11.2268 21.449 10.9698H19.4935Z" fill="#DF904A"/>
<path fill-rule="evenodd" clip-rule="evenodd" d="M19.4935 10.9695H21.435C21.435 9.90027 20.5625 9.04199 19.4935 9.04199C18.4241 9.04199 17.5518 9.90027 17.5518 10.9695C17.5518 12.0389 18.4241 12.9111 19.4935 12.9111C20.5625 12.9111 21.435 12.0388 21.435 10.9695H19.4935Z" fill="#E0914C"/>
<path fill-rule="evenodd" clip-rule="evenodd" d="M19.4935 10.97H21.4208C21.4208 9.91478 20.5486 9.05664 19.4935 9.05664C18.4382 9.05664 17.5659 9.91478 17.5659 10.97C17.5659 12.0394 18.4382 12.8975 19.4935 12.8975C20.5487 12.8975 21.4208 12.0394 21.4208 10.97H19.4935Z" fill="#E0914E"/>
<path fill-rule="evenodd" clip-rule="evenodd" d="M19.4935 10.9697H21.3928C21.3928 9.92858 20.5486 9.07031 19.4935 9.07031C18.4382 9.07031 17.594 9.92858 17.594 10.9697C17.594 12.0249 18.4382 12.883 19.4935 12.883C20.5487 12.883 21.3928 12.0249 21.3928 10.9697H19.4935Z" fill="#DF924F"/>
<path fill-rule="evenodd" clip-rule="evenodd" d="M19.4935 10.9697H21.3787C21.3787 9.92857 20.5345 9.08447 19.4935 9.08447C18.4523 9.08447 17.6081 9.9287 17.6081 10.9697C17.6081 12.0107 18.4523 12.8551 19.4935 12.8551C20.5345 12.8551 21.3787 12.0107 21.3787 10.9697H19.4935Z" fill="#E09351"/>
<path fill-rule="evenodd" clip-rule="evenodd" d="M19.4935 10.9699H21.3645C21.3645 9.94282 20.5203 9.11279 19.4935 9.11279C18.4663 9.11279 17.6221 9.94282 17.6221 10.9699C17.6221 12.0111 18.4663 12.8412 19.4935 12.8412C20.5204 12.8412 21.3645 12.0111 21.3645 10.9699H19.4935Z" fill="#E09552"/>
<path fill-rule="evenodd" clip-rule="evenodd" d="M19.4935 10.9699H21.3365C21.3365 9.95707 20.5203 9.12695 19.4935 9.12695C18.4664 9.12695 17.6362 9.95707 17.6362 10.9699C17.6362 11.9969 18.4664 12.8269 19.4935 12.8269C20.5204 12.8269 21.3365 11.9969 21.3365 10.9699H19.4935Z" fill="#E09554"/>
<path fill-rule="evenodd" clip-rule="evenodd" d="M19.4936 10.9696H21.3225C21.323 10.7293 21.276 10.4912 21.1842 10.2691C21.0924 10.047 20.9577 9.84523 20.7878 9.67531C20.6179 9.50539 20.4161 9.37069 20.194 9.27893C19.9719 9.18718 19.7339 9.14018 19.4936 9.14063C19.2532 9.14014 19.0152 9.18712 18.7931 9.27886C18.5709 9.37059 18.3691 9.50529 18.1992 9.67522C18.0292 9.84515 17.8945 10.047 17.8028 10.2691C17.711 10.4912 17.664 10.7292 17.6645 10.9696C17.6645 11.9826 18.4804 12.8127 19.4936 12.8127C20.5063 12.8127 21.3225 11.9826 21.3225 10.9696H19.4936Z" fill="#E09555"/>
<path fill-rule="evenodd" clip-rule="evenodd" d="M19.4936 10.9696H21.3083C21.3083 9.97071 20.4924 9.15479 19.4936 9.15479C18.4945 9.15479 17.6784 9.97071 17.6784 10.9696C17.6784 11.9826 18.4945 12.7846 19.4936 12.7846C19.7321 12.7852 19.9683 12.7386 20.1888 12.6476C20.4092 12.5566 20.6095 12.4229 20.7782 12.2543C20.9468 12.0856 21.0805 11.8853 21.1714 11.6648C21.2624 11.4444 21.3089 11.2081 21.3083 10.9696H19.4936Z" fill="#E19756"/>
<path fill-rule="evenodd" clip-rule="evenodd" d="M19.4936 10.9698H21.2942C21.2942 9.98512 20.4925 9.18311 19.4936 9.18311C18.4945 9.18311 17.6926 9.98512 17.6926 10.9698C17.6919 11.2065 17.738 11.4411 17.8282 11.6599C17.9185 11.8787 18.0511 12.0775 18.2185 12.2449C18.3859 12.4123 18.5847 12.5449 18.8035 12.6351C19.0223 12.7253 19.2569 12.7714 19.4936 12.7706C19.7302 12.7714 19.9647 12.7253 20.1835 12.635C20.4023 12.5448 20.6011 12.4122 20.7685 12.2448C20.9358 12.0774 21.0684 11.8786 21.1587 11.6598C21.2489 11.441 21.295 11.2065 21.2942 10.9698H19.4936Z" fill="#E19757"/>
<path fill-rule="evenodd" clip-rule="evenodd" d="M19.4935 10.9694H21.266C21.266 9.98472 20.4781 9.19678 19.4935 9.19678C18.5085 9.19678 17.7067 9.98472 17.7067 10.9694C17.7067 11.9543 18.5087 12.7562 19.4935 12.7562C20.4782 12.7562 21.266 11.9542 21.266 10.9694H19.4935Z" fill="#E29959"/>
<path fill-rule="evenodd" clip-rule="evenodd" d="M19.4935 10.9701H21.252C21.252 9.99924 20.4641 9.21143 19.4935 9.21143C18.5226 9.21143 17.7348 9.99924 17.7348 10.9701C17.7348 11.9409 18.5227 12.7427 19.4935 12.7427C20.4641 12.7427 21.252 11.9409 21.252 10.9701H19.4935Z" fill="#E2995B"/>
<path fill-rule="evenodd" clip-rule="evenodd" d="M19.4936 10.9697H21.2378C21.2378 10.0131 20.4499 9.2251 19.4936 9.2251C18.5367 9.2251 17.7489 10.0131 17.7489 10.9697C17.7489 11.9405 18.5368 12.7142 19.4936 12.7142C20.45 12.7142 21.2378 11.9405 21.2378 10.9697H19.4936Z" fill="#E29B5B"/>
<path fill-rule="evenodd" clip-rule="evenodd" d="M19.4936 10.9698H21.2241C21.2241 10.0272 20.4501 9.25342 19.4936 9.25342C18.5367 9.25342 17.7629 10.0272 17.7629 10.9698C17.7629 11.9266 18.5368 12.7003 19.4936 12.7003C20.4501 12.7003 21.2241 11.9265 21.2241 10.9698H19.4936Z" fill="#E29B5D"/>
<path fill-rule="evenodd" clip-rule="evenodd" d="M19.4936 10.9699H21.1958C21.1962 10.7463 21.1525 10.5247 21.0671 10.318C20.9817 10.1113 20.8564 9.92343 20.6982 9.76527C20.5401 9.60711 20.3522 9.48173 20.1455 9.39632C19.9388 9.31092 19.7172 9.26717 19.4936 9.26758C18.5508 9.26758 17.7911 10.0273 17.7911 10.9699C17.7911 11.9126 18.5508 12.6865 19.4936 12.6865C20.4361 12.6865 21.1958 11.9126 21.1958 10.9699H19.4936Z" fill="#E39D5F"/>
<path fill-rule="evenodd" clip-rule="evenodd" d="M19.4935 10.9701H21.1816C21.1816 10.0414 20.422 9.28174 19.4935 9.28174C18.5648 9.28174 17.8051 10.0414 17.8051 10.9701C17.8051 11.9127 18.5648 12.6724 19.4935 12.6724C20.422 12.6724 21.1816 11.9127 21.1816 10.9701H19.4935Z" fill="#E39D61"/>
<path fill-rule="evenodd" clip-rule="evenodd" d="M19.4935 10.9696H21.1677C21.1677 10.0551 20.422 9.29541 19.4935 9.29541C18.5648 9.29541 17.8192 10.0551 17.8192 10.9696C17.8192 11.8982 18.5648 12.6438 19.4935 12.6438C20.422 12.6438 21.1677 11.8982 21.1677 10.9696H19.4935Z" fill="#E39F63"/>
<path fill-rule="evenodd" clip-rule="evenodd" d="M19.4935 10.9698H21.1535C21.1535 10.0553 20.4078 9.32373 19.4935 9.32373C18.5789 9.32373 17.8333 10.0553 17.8333 10.9698C17.8333 11.8843 18.5789 12.6301 19.4935 12.6301C20.4078 12.6301 21.1535 11.8843 21.1535 10.9698H19.4935Z" fill="#E39F63"/>
<path fill-rule="evenodd" clip-rule="evenodd" d="M19.4936 10.9699H21.1254C21.1254 10.0696 20.3941 9.33789 19.4936 9.33789C18.593 9.33789 17.8614 10.0694 17.8614 10.9699C17.8614 11.8844 18.593 12.6159 19.4936 12.6159C20.3941 12.6159 21.1254 11.8844 21.1254 10.9699H19.4936Z" fill="#E39F64"/>
<path fill-rule="evenodd" clip-rule="evenodd" d="M19.4936 10.97H21.1115C21.1115 10.0837 20.394 9.35205 19.4936 9.35205C18.593 9.35205 17.8755 10.0837 17.8755 10.97C17.8755 11.8705 18.593 12.6022 19.4936 12.6022C20.394 12.6022 21.1115 11.8705 21.1115 10.97H19.4936Z" fill="#E4A166"/>
<path fill-rule="evenodd" clip-rule="evenodd" d="M19.4936 10.97H21.0974C21.0974 10.0838 20.3799 9.36621 19.4936 9.36621C18.607 9.36621 17.8895 10.0837 17.8895 10.97C17.8895 11.8564 18.607 12.574 19.4936 12.574C20.3799 12.574 21.0974 11.8564 21.0974 10.97H19.4936Z" fill="#E4A367"/>
<path fill-rule="evenodd" clip-rule="evenodd" d="M19.4935 10.9698H21.0832C21.0832 10.0976 20.3658 9.39404 19.4935 9.39404C18.6211 9.39404 17.9036 10.0975 17.9036 10.9698C17.9036 11.8562 18.6211 12.5596 19.4935 12.5596C20.3658 12.5596 21.0832 11.8562 21.0832 10.9698H19.4935Z" fill="#E4A369"/>
<path fill-rule="evenodd" clip-rule="evenodd" d="M19.4935 10.9699H21.0552C21.0552 10.1117 20.3657 9.4082 19.4935 9.4082C18.621 9.4082 17.9317 10.1117 17.9317 10.9699C17.9317 11.8422 18.621 12.5456 19.4935 12.5456C20.3657 12.5456 21.0552 11.8422 21.0552 10.9699H19.4935Z" fill="#E4A36A"/>
<path fill-rule="evenodd" clip-rule="evenodd" d="M19.4936 10.9695H21.0411C21.0417 10.7661 21.002 10.5646 20.9245 10.3766C20.8469 10.1886 20.7329 10.0178 20.5891 9.87393C20.4453 9.73011 20.2745 9.61613 20.0865 9.53855C19.8985 9.46097 19.697 9.42132 19.4936 9.42188C19.2902 9.42127 19.0886 9.46088 18.9006 9.53844C18.7125 9.61599 18.5417 9.72996 18.3978 9.87379C18.254 10.0176 18.14 10.1885 18.0624 10.3765C17.9848 10.5646 17.9452 10.7661 17.9458 10.9695C17.9458 11.8278 18.6352 12.5312 19.4936 12.5312C20.3516 12.5312 21.0411 11.8278 21.0411 10.9695H19.4936Z" fill="#E5A56C"/>
<path fill-rule="evenodd" clip-rule="evenodd" d="M19.4936 10.9694H21.0271C21.0271 10.1254 20.3376 9.43604 19.4936 9.43604C18.6492 9.43604 17.9598 10.1254 17.9598 10.9694C17.9598 11.8136 18.6492 12.503 19.4936 12.503C20.3376 12.503 21.0271 11.8136 21.0271 10.9694H19.4936Z" fill="#E5A56C"/>
<path fill-rule="evenodd" clip-rule="evenodd" d="M19.4935 10.9697H21.0127C21.0127 10.1396 20.3235 9.46436 19.4935 9.46436C18.6633 9.46436 17.9739 10.1396 17.9739 10.9697C17.9739 11.8139 18.6633 12.489 19.4935 12.489C20.3235 12.489 21.0127 11.8139 21.0127 10.9697H19.4935Z" fill="#E5A76E"/>
<path fill-rule="evenodd" clip-rule="evenodd" d="M19.4935 10.9697H20.9847C20.9847 10.1538 20.3235 9.47852 19.4935 9.47852C18.6633 9.47852 18.0022 10.1538 18.0022 10.9697C18.0022 11.7999 18.6634 12.4752 19.4935 12.4752C20.3235 12.4752 20.9847 11.7999 20.9847 10.9697H19.4935Z" fill="#E5A770"/>
<path fill-rule="evenodd" clip-rule="evenodd" d="M19.4935 10.9698H20.9705C20.9705 10.1539 20.3093 9.49268 19.4935 9.49268C18.6773 9.49268 18.0161 10.1539 18.0161 10.9698C18.0161 11.7859 18.6773 12.4471 19.4935 12.4471C20.3094 12.4471 20.9705 11.7859 20.9705 10.9698H19.4935Z" fill="#E6A970"/>
<path fill-rule="evenodd" clip-rule="evenodd" d="M19.4936 10.9699H20.9566C20.9566 10.168 20.2953 9.50684 19.4936 9.50684C18.6914 9.50684 18.0302 10.168 18.0302 10.9699C18.0302 11.786 18.6914 12.433 19.4936 12.433C20.2953 12.433 20.9566 11.786 20.9566 10.9699H19.4936Z" fill="#E6A972"/>
<path fill-rule="evenodd" clip-rule="evenodd" d="M19.4936 10.9702H20.9426C20.9426 10.1823 20.2953 9.53516 19.4936 9.53516C18.6914 9.53516 18.0443 10.1823 18.0443 10.9702C18.044 11.1606 18.0813 11.3492 18.154 11.5251C18.2268 11.7011 18.3335 11.861 18.4682 11.9956C18.6028 12.1302 18.7627 12.237 18.9386 12.3097C19.1146 12.3824 19.3032 12.4197 19.4936 12.4194C19.6839 12.4197 19.8725 12.3824 20.0484 12.3096C20.2244 12.2369 20.3842 12.1301 20.5188 11.9955C20.6534 11.8609 20.7601 11.701 20.8329 11.5251C20.9056 11.3491 20.9429 11.1606 20.9426 10.9702H19.4936Z" fill="#E6AB74"/>
<path fill-rule="evenodd" clip-rule="evenodd" d="M19.4936 10.9698H20.9144C20.9149 10.783 20.8785 10.598 20.8072 10.4254C20.736 10.2528 20.6314 10.096 20.4994 9.96394C20.3673 9.83189 20.2105 9.72725 20.0379 9.65601C19.8653 9.58477 19.6803 9.54835 19.4936 9.54883C19.3068 9.54829 19.1218 9.58468 18.9491 9.65589C18.7765 9.7271 18.6196 9.83174 18.4875 9.96379C18.3555 10.0958 18.2508 10.2527 18.1796 10.4253C18.1083 10.598 18.0719 10.783 18.0724 10.9698C18.0724 11.7577 18.7055 12.4049 19.4936 12.4049C20.2813 12.4049 20.9144 11.7577 20.9144 10.9698H19.4936Z" fill="#E6AB75"/>
<path fill-rule="evenodd" clip-rule="evenodd" d="M19.4935 10.9698H20.9002C20.9002 10.1959 20.2673 9.56299 19.4935 9.56299C18.7196 9.56299 18.0864 10.1961 18.0864 10.9698C18.0864 11.7577 18.7195 12.3767 19.4935 12.3767C19.6785 12.3773 19.8617 12.3414 20.0327 12.2709C20.2036 12.2004 20.359 12.0968 20.4897 11.966C20.6205 11.8352 20.7241 11.6799 20.7945 11.5089C20.865 11.3379 20.9009 11.1547 20.9002 10.9698H19.4935Z" fill="#E7AD77"/>
<path fill-rule="evenodd" clip-rule="evenodd" d="M19.4936 10.9699H20.8864C20.8864 10.2102 20.2674 9.57715 19.4936 9.57715C18.7197 9.57715 18.1005 10.2102 18.1005 10.9699C18.1005 11.7438 18.7196 12.3628 19.4936 12.3628C19.6767 12.3635 19.8582 12.328 20.0275 12.2583C20.1969 12.1886 20.3507 12.086 20.4802 11.9565C20.6097 11.827 20.7122 11.6732 20.782 11.5038C20.8517 11.3345 20.8872 11.153 20.8864 10.9699H19.4936Z" fill="#E7AD77"/>
<path fill-rule="evenodd" clip-rule="evenodd" d="M19.4935 10.9698H20.8722C20.8722 10.2101 20.2532 9.60498 19.4935 9.60498C18.7337 9.60498 18.1146 10.2101 18.1146 10.9698C18.1146 11.7296 18.7336 12.3487 19.4935 12.3487C20.253 12.3487 20.8722 11.7296 20.8722 10.9698H19.4935Z" fill="#E8AF79"/>
<path fill-rule="evenodd" clip-rule="evenodd" d="M19.4936 10.9697H20.8441C20.8441 10.2241 20.2391 9.61914 19.4936 9.61914C18.7478 9.61914 18.1427 10.2241 18.1427 10.9697C18.1427 11.7295 18.7477 12.3344 19.4936 12.3344C20.2391 12.3344 20.8441 11.7295 20.8441 10.9697H19.4936Z" fill="#E8AF7B"/>
<path fill-rule="evenodd" clip-rule="evenodd" d="M19.4936 10.9699H20.83C20.83 10.2384 20.239 9.6333 19.4936 9.6333C18.7478 9.6333 18.1568 10.2384 18.1568 10.9699C18.1568 11.7155 18.7477 12.3065 19.4936 12.3065C20.239 12.3065 20.83 11.7156 20.83 10.9699H19.4936Z" fill="#E8B17B"/>
<path fill-rule="evenodd" clip-rule="evenodd" d="M19.4935 10.9699H20.8159C20.8161 10.7962 20.782 10.6242 20.7156 10.4636C20.6492 10.3031 20.5518 10.1572 20.429 10.0344C20.3062 9.91157 20.1603 9.81416 19.9998 9.74776C19.8393 9.68137 19.6672 9.64728 19.4935 9.64746C19.3198 9.64725 19.1477 9.6813 18.9872 9.74768C18.8266 9.81407 18.6807 9.91146 18.5579 10.0343C18.435 10.1571 18.3376 10.303 18.2712 10.4636C18.2048 10.6241 18.1707 10.7962 18.1708 10.9699C18.1706 11.1437 18.2047 11.3158 18.2711 11.4763C18.3375 11.6369 18.4349 11.7828 18.5578 11.9056C18.6807 12.0285 18.8266 12.1259 18.9871 12.1923C19.1477 12.2587 19.3198 12.2928 19.4935 12.2925C19.6672 12.2927 19.8393 12.2586 19.9998 12.1922C20.1603 12.1258 20.3062 12.0284 20.429 11.9055C20.5518 11.7827 20.6492 11.6368 20.7156 11.4763C20.782 11.3157 20.8161 11.1437 20.8159 10.9699H19.4935Z" fill="#E8B17D"/>
<path fill-rule="evenodd" clip-rule="evenodd" d="M19.4935 10.9696H20.8017C20.8017 10.2521 20.211 9.67529 19.4935 9.67529C18.7759 9.67529 18.1849 10.2521 18.1849 10.9696C18.1849 11.6871 18.7758 12.2782 19.4935 12.2782C20.211 12.2782 20.8017 11.6873 20.8017 10.9696H19.4935Z" fill="#E8B17E"/>
<path fill-rule="evenodd" clip-rule="evenodd" d="M19.4935 10.9697H20.7738C20.7738 10.2663 20.1968 9.68946 19.4935 9.68946C19.3253 9.68888 19.1585 9.7216 19.0029 9.78573C18.8473 9.84986 18.706 9.94414 18.587 10.0631C18.468 10.1821 18.3737 10.3235 18.3095 10.4791C18.2454 10.6347 18.2126 10.8014 18.2132 10.9697C18.2132 11.6872 18.7759 12.264 19.4935 12.264C20.1968 12.264 20.7738 11.6872 20.7738 10.9697H19.4935Z" fill="#E9B381"/>
<path fill-rule="evenodd" clip-rule="evenodd" d="M19.4935 10.9698H20.7596C20.7603 10.8033 20.728 10.6384 20.6646 10.4845C20.6013 10.3305 20.508 10.1907 20.3903 10.073C20.2726 9.95524 20.1328 9.862 19.9789 9.79861C19.8249 9.73522 19.66 9.70294 19.4935 9.70362C19.3271 9.70292 19.1621 9.73519 19.0081 9.79857C18.8542 9.86195 18.7143 9.95519 18.5966 10.0729C18.4789 10.1906 18.3856 10.3305 18.3222 10.4844C18.2588 10.6384 18.2266 10.8033 18.2272 10.9698C18.2266 11.1363 18.2588 11.3013 18.3222 11.4552C18.3856 11.6092 18.4789 11.749 18.5966 11.8667C18.7143 11.9845 18.8542 12.0777 19.0081 12.1411C19.1621 12.2045 19.3271 12.2368 19.4935 12.2361C19.66 12.2368 19.825 12.2045 19.9789 12.1411C20.1328 12.0777 20.2726 11.9844 20.3903 11.8667C20.508 11.749 20.6013 11.6091 20.6646 11.4552C20.728 11.3012 20.7603 11.1363 20.7596 10.9698H19.4935Z" fill="#E9B381"/>
<path fill-rule="evenodd" clip-rule="evenodd" d="M19.4936 10.9699H20.7456C20.7456 10.2805 20.1828 9.71777 19.4936 9.71777C18.8041 9.71777 18.2413 10.2805 18.2413 10.9699C18.2413 11.6592 18.8041 12.222 19.4936 12.222C20.1828 12.222 20.7456 11.6592 20.7456 10.9699H19.4936Z" fill="#E9B583"/>
<path fill-rule="evenodd" clip-rule="evenodd" d="M19.4936 10.9701H20.7316C20.7316 10.2948 20.1686 9.74609 19.4936 9.74609C18.8181 9.74609 18.2554 10.2948 18.2554 10.9701C18.2554 11.6594 18.8181 12.2081 19.4936 12.2081C20.1686 12.2081 20.7316 11.6594 20.7316 10.9701H19.4936Z" fill="#E9B584"/>
<path fill-rule="evenodd" clip-rule="evenodd" d="M19.4935 10.9696H20.7032C20.7032 10.3084 20.1685 9.75977 19.4935 9.75977C18.8181 9.75977 18.2835 10.3084 18.2835 10.9696C18.2835 11.6449 18.8181 12.1936 19.4935 12.1936C20.1685 12.1936 20.7032 11.6449 20.7032 10.9696H19.4935Z" fill="#EAB786"/>
<path fill-rule="evenodd" clip-rule="evenodd" d="M19.4936 10.9697H20.6893C20.6894 10.8127 20.6586 10.6571 20.5986 10.512C20.5385 10.3668 20.4505 10.235 20.3394 10.1239C20.2283 10.0128 20.0965 9.92475 19.9513 9.8647C19.8062 9.80465 19.6506 9.7738 19.4936 9.77393C18.8322 9.77393 18.2975 10.3085 18.2975 10.9697C18.2975 11.6309 18.8322 12.1656 19.4936 12.1656C19.6506 12.1657 19.8062 12.1348 19.9513 12.0748C20.0965 12.0147 20.2283 11.9266 20.3394 11.8156C20.4505 11.7045 20.5385 11.5726 20.5986 11.4275C20.6586 11.2824 20.6894 11.1268 20.6893 10.9697H19.4936Z" fill="#EAB788"/>
<path fill-rule="evenodd" clip-rule="evenodd" d="M19.4936 10.9698H20.6751C20.6751 10.3227 20.1406 9.78809 19.4936 9.78809C18.8463 9.78809 18.3116 10.3227 18.3116 10.9698C18.3116 11.631 18.8463 12.1516 19.4936 12.1516C20.1406 12.1516 20.6751 11.631 20.6751 10.9698H19.4936Z" fill="#EBB989"/>
<path fill-rule="evenodd" clip-rule="evenodd" d="M19.4936 10.9696H20.6614C20.6614 10.3365 20.1408 9.81592 19.4936 9.81592C18.8463 9.81592 18.3257 10.3365 18.3257 10.9696C18.3253 11.123 18.3553 11.2751 18.4138 11.4169C18.4724 11.5588 18.5584 11.6877 18.6669 11.7962C18.7755 11.9047 18.9044 11.9907 19.0462 12.0492C19.1881 12.1078 19.3401 12.1377 19.4936 12.1373C19.6471 12.1377 19.7991 12.1077 19.9409 12.0492C20.0828 11.9906 20.2117 11.9046 20.3202 11.7961C20.4287 11.6876 20.5147 11.5587 20.5733 11.4169C20.6318 11.275 20.6618 11.123 20.6614 10.9696H19.4936Z" fill="#EBB98A"/>
<path fill-rule="evenodd" clip-rule="evenodd" d="M19.4935 10.9696H20.633C20.6336 10.8198 20.6046 10.6714 20.5475 10.5328C20.4905 10.3943 20.4066 10.2684 20.3006 10.1625C20.1947 10.0566 20.0689 9.97263 19.9303 9.91558C19.7918 9.85853 19.6433 9.82947 19.4935 9.83009C18.8603 9.83009 18.3538 10.3364 18.3538 10.9696C18.3538 11.6028 18.8603 12.1234 19.4935 12.1234C20.1265 12.1234 20.633 11.6028 20.633 10.9696H19.4935Z" fill="#EBBB8C"/>
<path fill-rule="evenodd" clip-rule="evenodd" d="M19.4936 10.9697H20.6188C20.6188 10.3507 20.1126 9.84424 19.4936 9.84424C18.8744 9.84424 18.3679 10.3506 18.3679 10.9697C18.3679 11.6028 18.8744 12.0953 19.4936 12.0953C20.1126 12.0953 20.6188 11.6029 20.6188 10.9697H19.4936Z" fill="#EBBB8C"/>
<path fill-rule="evenodd" clip-rule="evenodd" d="M19.4936 10.9698H20.6051C20.6051 10.3649 20.1128 9.8584 19.4936 9.8584C18.8744 9.8584 18.382 10.3648 18.382 10.9698C18.3811 11.1161 18.4093 11.261 18.4648 11.3962C18.5204 11.5315 18.6022 11.6544 18.7056 11.7577C18.809 11.8611 18.9319 11.943 19.0672 11.9985C19.2024 12.054 19.3474 12.0822 19.4936 12.0813C19.6398 12.0822 19.7847 12.054 19.92 11.9985C20.0552 11.943 20.1781 11.8611 20.2815 11.7577C20.3849 11.6544 20.4667 11.5315 20.5223 11.3962C20.5778 11.261 20.6059 11.1161 20.6051 10.9698H19.4936Z" fill="#ECBD8F"/>
<path fill-rule="evenodd" clip-rule="evenodd" d="M19.4935 10.9696H20.5907C20.5907 10.3646 20.0985 9.88623 19.4935 9.88623C18.8884 9.88623 18.396 10.3645 18.396 10.9696C18.396 11.5747 18.8884 12.0672 19.4935 12.0672C20.0985 12.0672 20.5907 11.5747 20.5907 10.9696H19.4935Z" fill="#ECBD90"/>
<path fill-rule="evenodd" clip-rule="evenodd" d="M19.4935 10.9696H20.5625C20.5626 10.8292 20.535 10.6901 20.4813 10.5604C20.4276 10.4307 20.3489 10.3128 20.2496 10.2135C20.1503 10.1142 20.0325 10.0354 19.9027 9.98171C19.773 9.92799 19.6339 9.90035 19.4935 9.90039C19.3531 9.90032 19.214 9.92792 19.0842 9.98163C18.9545 10.0353 18.8366 10.1141 18.7372 10.2134C18.6379 10.3127 18.5592 10.4306 18.5054 10.5603C18.4517 10.6901 18.4241 10.8292 18.4241 10.9696C18.4241 11.5605 18.9025 12.0529 19.4935 12.0529C20.0843 12.0529 20.5625 11.5605 20.5625 10.9696H19.4935Z" fill="#ECBF93"/>
<path fill-rule="evenodd" clip-rule="evenodd" d="M19.4936 10.9697H20.5487C20.5487 10.3929 20.0702 9.91455 19.4936 9.91455C18.9025 9.91455 18.4382 10.3929 18.4382 10.9697C18.4382 11.5606 18.9025 12.0249 19.4936 12.0249C20.0702 12.0249 20.5487 11.5606 20.5487 10.9697H19.4936Z" fill="#ECBF93"/>
<path fill-rule="evenodd" clip-rule="evenodd" d="M19.4935 10.9699H20.5345C20.5345 10.393 20.0702 9.92871 19.4935 9.92871C18.9166 9.92871 18.4523 10.3929 18.4523 10.9699C18.4523 11.5468 18.9166 12.011 19.4935 12.011C19.6303 12.0113 19.7658 11.9846 19.8923 11.9324C20.0187 11.8802 20.1336 11.8035 20.2303 11.7067C20.327 11.61 20.4037 11.4951 20.4559 11.3686C20.5081 11.2422 20.5348 11.1067 20.5345 10.9699H19.4935Z" fill="#EDC195"/>
<path fill-rule="evenodd" clip-rule="evenodd" d="M19.4936 10.9699H20.5205C20.5205 10.4071 20.0565 9.95703 19.4936 9.95703C18.9307 9.95703 18.4664 10.4073 18.4664 10.9699C18.4664 11.5326 18.9307 11.9969 19.4936 11.9969C20.0563 11.9969 20.5205 11.5326 20.5205 10.9699H19.4936Z" fill="#EDC196"/>
<path fill-rule="evenodd" clip-rule="evenodd" d="M19.4935 10.9702H20.4923C20.4923 10.4214 20.0421 9.97119 19.4935 9.97119C18.9447 9.97119 18.4945 10.4214 18.4945 10.9702C18.4945 11.533 18.9447 11.9832 19.4935 11.9832C20.0422 11.9832 20.4923 11.533 20.4923 10.9702H19.4935Z" fill="#EEC397"/>
<path fill-rule="evenodd" clip-rule="evenodd" d="M19.4935 10.9696H20.4782C20.4782 10.435 20.0422 9.98486 19.4935 9.98486C18.9447 9.98486 18.5086 10.4351 18.5086 10.9696C18.5078 11.0992 18.5327 11.2276 18.5819 11.3475C18.6311 11.4673 18.7037 11.5762 18.7953 11.6678C18.8869 11.7594 18.9958 11.8319 19.1157 11.8812C19.2355 11.9304 19.364 11.9553 19.4935 11.9545C19.6231 11.9553 19.7515 11.9303 19.8713 11.8811C19.9912 11.8319 20.1001 11.7594 20.1917 11.6678C20.2833 11.5762 20.3558 11.4673 20.4049 11.3474C20.4541 11.2276 20.4791 11.0991 20.4782 10.9696H19.4935Z" fill="#EEC399"/>
<path fill-rule="evenodd" clip-rule="evenodd" d="M19.4936 10.9698H20.4641C20.4641 10.4352 20.028 9.99902 19.4936 9.99902C18.9588 9.99902 18.5226 10.4352 18.5226 10.9698C18.5226 11.5046 18.9588 11.9406 19.4936 11.9406C20.028 11.9406 20.4641 11.5046 20.4641 10.9698H19.4936Z" fill="#EEC59B"/>
<path fill-rule="evenodd" clip-rule="evenodd" d="M19.4935 10.9695H20.4499C20.4499 10.449 20.0139 10.0269 19.4935 10.0269C18.9728 10.0269 18.5367 10.449 18.5367 10.9695C18.5367 11.5043 18.9728 11.9263 19.4935 11.9263C20.0139 11.9263 20.4499 11.5043 20.4499 10.9695H19.4935Z" fill="#EEC69D"/>
<path fill-rule="evenodd" clip-rule="evenodd" d="M19.4935 10.9696H20.422C20.422 10.4633 20.014 10.041 19.4935 10.041C18.9729 10.041 18.5648 10.4631 18.5648 10.9696C18.5648 11.4902 18.9729 11.9123 19.4935 11.9123C20.014 11.9123 20.422 11.4902 20.422 10.9696H19.4935Z" fill="#EEC69F"/>
<path fill-rule="evenodd" clip-rule="evenodd" d="M19.4935 10.9697H20.4077C20.4079 10.8495 20.3845 10.7305 20.3386 10.6195C20.2927 10.5085 20.2254 10.4076 20.1405 10.3226C20.0555 10.2376 19.9547 10.1703 19.8436 10.1244C19.7326 10.0785 19.6136 10.055 19.4935 10.0552C19.3733 10.0549 19.2543 10.0784 19.1432 10.1243C19.0321 10.1701 18.9312 10.2375 18.8462 10.3225C18.7613 10.4074 18.6939 10.5083 18.648 10.6194C18.6021 10.7305 18.5786 10.8495 18.5789 10.9697C18.5786 11.0899 18.6021 11.2089 18.648 11.32C18.6939 11.431 18.7613 11.5319 18.8462 11.6169C18.9312 11.7019 19.0321 11.7692 19.1432 11.8151C19.2543 11.861 19.3733 11.8844 19.4935 11.8842C19.6136 11.8844 19.7326 11.8609 19.8437 11.815C19.9547 11.7691 20.0556 11.7018 20.1405 11.6168C20.2255 11.5318 20.2928 11.4309 20.3386 11.3199C20.3845 11.2088 20.408 11.0898 20.4077 10.9697H19.4935Z" fill="#EFC89F"/>
<path fill-rule="evenodd" clip-rule="evenodd" d="M19.4936 10.9697H20.394C20.394 10.4774 19.986 10.0693 19.4936 10.0693C19.001 10.0693 18.593 10.4774 18.593 10.9697C18.5926 11.0881 18.6156 11.2054 18.6608 11.3148C18.7059 11.4242 18.7722 11.5236 18.8559 11.6073C18.9396 11.691 19.0391 11.7573 19.1485 11.8025C19.2579 11.8476 19.3752 11.8706 19.4936 11.8702C19.6119 11.8706 19.7292 11.8475 19.8386 11.8024C19.948 11.7573 20.0474 11.691 20.1311 11.6073C20.2148 11.5236 20.2811 11.4242 20.3262 11.3147C20.3714 11.2053 20.3944 11.0881 20.394 10.9697H19.4936Z" fill="#EFC8A1"/>
<path fill-rule="evenodd" clip-rule="evenodd" d="M19.4935 10.9699H20.3798C20.3798 10.4916 19.9858 10.0977 19.4935 10.0977C19.001 10.0977 18.607 10.4916 18.607 10.9699C18.6065 11.0864 18.6291 11.2019 18.6735 11.3097C18.7179 11.4174 18.7832 11.5154 18.8656 11.5978C18.948 11.6802 19.0459 11.7454 19.1537 11.7898C19.2615 11.8342 19.377 11.8568 19.4935 11.8562C19.6101 11.8567 19.7255 11.8341 19.8333 11.7897C19.941 11.7453 20.0389 11.6801 20.1213 11.5977C20.2037 11.5153 20.269 11.4174 20.3133 11.3096C20.3577 11.2019 20.3803 11.0864 20.3798 10.9699H19.4935Z" fill="#EFCAA3"/>
<path fill-rule="evenodd" clip-rule="evenodd" d="M19.4936 10.97H20.3516C20.3524 10.8571 20.3307 10.7452 20.2878 10.6408C20.245 10.5363 20.1818 10.4414 20.102 10.3616C20.0222 10.2817 19.9273 10.2186 19.8228 10.1757C19.7184 10.1328 19.6065 10.1111 19.4936 10.1118C19.3807 10.1111 19.2687 10.1328 19.1643 10.1756C19.0598 10.2185 18.9649 10.2817 18.885 10.3615C18.8052 10.4414 18.742 10.5363 18.6991 10.6407C18.6562 10.7452 18.6344 10.8571 18.6351 10.97C18.6351 11.4484 19.0151 11.8424 19.4936 11.8424C19.9718 11.8424 20.3516 11.4486 20.3516 10.97H19.4936Z" fill="#EFCAA3"/>
<path fill-rule="evenodd" clip-rule="evenodd" d="M19.4936 10.9695H20.3375C20.3375 10.5053 19.9577 10.1255 19.4936 10.1255C19.0291 10.1255 18.6492 10.5053 18.6492 10.9695C18.6492 11.4338 19.0291 11.8137 19.4936 11.8137C19.9576 11.8137 20.3375 11.4338 20.3375 10.9695H19.4936Z" fill="#F0CCA6"/>
<path fill-rule="evenodd" clip-rule="evenodd" d="M19.4936 10.9697H20.3236C20.3236 10.5196 19.9436 10.1396 19.4936 10.1396C19.0291 10.1396 18.6633 10.5196 18.6633 10.9697C18.6633 11.434 19.0291 11.7999 19.4936 11.7999C19.9436 11.7999 20.3236 11.434 20.3236 10.9697H19.4936Z" fill="#F0CCA8"/>
<path fill-rule="evenodd" clip-rule="evenodd" d="M19.4935 10.9698H20.3095C20.3095 10.5197 19.9435 10.168 19.4935 10.168C19.0433 10.168 18.6773 10.5197 18.6773 10.9698C18.6775 11.1863 18.7635 11.3938 18.9165 11.5468C19.0696 11.6998 19.2771 11.7858 19.4935 11.7859C19.7099 11.7857 19.9174 11.6997 20.0704 11.5467C20.2233 11.3937 20.3094 11.1862 20.3095 10.9698H19.4935Z" fill="#F1CEAA"/>
<path fill-rule="evenodd" clip-rule="evenodd" d="M19.4935 10.9694H20.2811C20.2813 10.8659 20.2611 10.7634 20.2216 10.6678C20.1821 10.5721 20.1241 10.4852 20.0509 10.412C19.9777 10.3388 19.8908 10.2808 19.7952 10.2412C19.6995 10.2017 19.597 10.1815 19.4935 10.1816C19.0572 10.1816 18.7054 10.5333 18.7054 10.9694C18.7054 11.4056 19.0572 11.7714 19.4935 11.7714C19.9295 11.7714 20.2811 11.4056 20.2811 10.9694H19.4935Z" fill="#F1CEAA"/>
<path fill-rule="evenodd" clip-rule="evenodd" d="M19.4936 10.9697H20.2674C20.2674 10.5477 19.9156 10.1958 19.4936 10.1958C19.0713 10.1958 18.7197 10.5476 18.7197 10.9697C18.7194 11.0714 18.7392 11.1722 18.778 11.2662C18.8167 11.3602 18.8737 11.4457 18.9457 11.5176C19.0176 11.5895 19.103 11.6465 19.1971 11.6853C19.2911 11.7241 19.3919 11.7439 19.4936 11.7436C19.5953 11.7439 19.6961 11.724 19.7901 11.6853C19.8841 11.6465 19.9695 11.5895 20.0414 11.5175C20.1133 11.4456 20.1703 11.3602 20.2091 11.2662C20.2479 11.1722 20.2677 11.0714 20.2674 10.9697H19.4936Z" fill="#F1D0AD"/>
<path fill-rule="evenodd" clip-rule="evenodd" d="M19.4935 10.9702H20.253C20.253 10.5621 19.9153 10.2104 19.4935 10.2104C19.0713 10.2104 18.7337 10.5621 18.7337 10.9702C18.7333 11.0701 18.7526 11.1691 18.7907 11.2614C18.8287 11.3538 18.8846 11.4378 18.9553 11.5084C19.0259 11.5791 19.1099 11.635 19.2022 11.673C19.2946 11.7111 19.3936 11.7304 19.4935 11.73C19.5934 11.7304 19.6924 11.711 19.7847 11.673C19.877 11.6349 19.9609 11.579 20.0316 11.5083C20.1022 11.4377 20.1581 11.3537 20.1961 11.2614C20.2341 11.169 20.2535 11.07 20.253 10.9702H19.4935Z" fill="#F1D0AE"/>
<path fill-rule="evenodd" clip-rule="evenodd" d="M19.4936 10.9699H20.2391C20.2391 10.5618 19.9014 10.2383 19.4936 10.2383C19.0855 10.2383 18.7478 10.5618 18.7478 10.9699C18.7478 11.3779 19.0855 11.7155 19.4936 11.7155C19.9014 11.7155 20.2391 11.3778 20.2391 10.9699H19.4936Z" fill="#F2D2B1"/>
<path fill-rule="evenodd" clip-rule="evenodd" d="M19.4936 10.9699H20.2111C20.2111 10.5761 19.8873 10.2524 19.4936 10.2524C19.0996 10.2524 18.7759 10.5761 18.7759 10.9699C18.7759 11.3779 19.0997 11.7015 19.4936 11.7015C19.8873 11.7015 20.2111 11.3778 20.2111 10.9699H19.4936Z" fill="#F2D2B3"/>
<path fill-rule="evenodd" clip-rule="evenodd" d="M19.4935 10.9696H20.1967C20.1967 10.5896 19.887 10.2661 19.4935 10.2661C19.0995 10.2661 18.79 10.5896 18.79 10.9696C18.79 11.3635 19.0997 11.673 19.4935 11.673C19.8872 11.673 20.1967 11.3634 20.1967 10.9696H19.4935Z" fill="#F3D4B4"/>
<path fill-rule="evenodd" clip-rule="evenodd" d="M19.4936 10.9696H20.1828C20.1825 10.7869 20.1098 10.6117 19.9806 10.4825C19.8514 10.3533 19.6763 10.2806 19.4936 10.2803C19.1135 10.2803 18.8041 10.5899 18.8041 10.9696C18.8041 11.3494 19.1135 11.659 19.4936 11.659C19.6763 11.6586 19.8514 11.5859 19.9806 11.4567C20.1098 11.3275 20.1825 11.1523 20.1828 10.9696H19.4936Z" fill="#F3D4B5"/>
<path fill-rule="evenodd" clip-rule="evenodd" d="M19.4936 10.9699H20.1686C20.1686 10.6041 19.8592 10.3086 19.4936 10.3086C19.1276 10.3086 18.8181 10.6041 18.8181 10.9699C18.8181 11.3498 19.1277 11.6452 19.4936 11.6452C19.8593 11.6452 20.1686 11.3497 20.1686 10.9699H19.4936Z" fill="#F3D4B7"/>
<path fill-rule="evenodd" clip-rule="evenodd" d="M19.4935 10.9699H20.1405C20.1408 10.8849 20.1242 10.8006 20.0918 10.722C20.0593 10.6434 20.0117 10.572 19.9516 10.5118C19.8914 10.4517 19.82 10.404 19.7414 10.3716C19.6628 10.3391 19.5786 10.3225 19.4935 10.3228C19.4085 10.3225 19.3242 10.3391 19.2456 10.3715C19.1669 10.4039 19.0955 10.4516 19.0353 10.5117C18.9752 10.5719 18.9275 10.6433 18.8951 10.722C18.8626 10.8006 18.846 10.8849 18.8463 10.9699C18.8463 11.3358 19.1277 11.6312 19.4935 11.6312C19.8592 11.6312 20.1405 11.3357 20.1405 10.9699H19.4935Z" fill="#F3D6B8"/>
<path fill-rule="evenodd" clip-rule="evenodd" d="M19.4935 10.97H20.1264C20.1267 10.8868 20.1106 10.8043 20.0789 10.7274C20.0472 10.6504 20.0006 10.5805 19.9418 10.5216C19.883 10.4628 19.8131 10.4162 19.7361 10.3845C19.6592 10.3527 19.5767 10.3366 19.4935 10.3369C19.1418 10.3369 18.8604 10.6184 18.8604 10.97C18.8604 11.3217 19.1418 11.6031 19.4935 11.6031C19.5767 11.6035 19.6592 11.5873 19.7361 11.5556C19.8131 11.5239 19.883 11.4773 19.9418 11.4184C20.0006 11.3596 20.0472 11.2896 20.0789 11.2127C20.1106 11.1357 20.1267 11.0533 20.1264 10.97H19.4935Z" fill="#F4D8BA"/>
<path fill-rule="evenodd" clip-rule="evenodd" d="M19.4936 10.9696H20.1126C20.1126 10.6319 19.8312 10.3506 19.4936 10.3506C19.156 10.3506 18.8744 10.632 18.8744 10.9696C18.8744 11.3213 19.156 11.5885 19.4936 11.5885C19.8312 11.5885 20.1126 11.3212 20.1126 10.9696H19.4936Z" fill="#F4D9BC"/>
<path fill-rule="evenodd" clip-rule="evenodd" d="M19.4935 10.9698H20.0984C20.0984 10.6462 19.8312 10.3789 19.4935 10.3789C19.1558 10.3789 18.8884 10.6462 18.8884 10.9698C18.8884 11.3075 19.1558 11.5748 19.4935 11.5748C19.8312 11.5748 20.0984 11.3074 20.0984 10.9698H19.4935Z" fill="#F4D9BE"/>
<path fill-rule="evenodd" clip-rule="evenodd" d="M19.4936 10.9699H20.0703C20.0703 10.6463 19.8171 10.3931 19.4936 10.3931C19.1698 10.3931 18.9166 10.6463 18.9166 10.9699C18.9166 11.2936 19.1698 11.5609 19.4936 11.5609C19.8171 11.5609 20.0703 11.2935 20.0703 10.9699H19.4936Z" fill="#F4DBBF"/>
<path fill-rule="evenodd" clip-rule="evenodd" d="M19.4936 10.9695H20.0564C20.0559 10.8204 19.9965 10.6775 19.8911 10.572C19.7856 10.4666 19.6427 10.4072 19.4936 10.4067C19.1839 10.4067 18.9307 10.6599 18.9307 10.9695C18.9307 11.2791 19.1839 11.5323 19.4936 11.5323C19.6427 11.5319 19.7856 11.4724 19.8911 11.367C19.9965 11.2615 20.0559 11.1186 20.0564 10.9695H19.4936Z" fill="#F4DBC0"/>
<path fill-rule="evenodd" clip-rule="evenodd" d="M19.4935 10.9696H20.0422C20.0422 10.6741 19.7889 10.4209 19.4935 10.4209C19.198 10.4209 18.9447 10.6741 18.9447 10.9696C18.9447 11.2791 19.198 11.5183 19.4935 11.5183C19.7888 11.5183 20.0422 11.2791 20.0422 10.9696H19.4935Z" fill="#F5DDC3"/>
<path fill-rule="evenodd" clip-rule="evenodd" d="M19.4935 10.9697H20.028C20.028 10.6883 19.7888 10.4492 19.4935 10.4492C19.198 10.4492 18.9588 10.6883 18.9588 10.9697C18.9588 11.1115 19.0151 11.2475 19.1154 11.3478C19.2156 11.448 19.3516 11.5043 19.4934 11.5043C19.6352 11.5043 19.7712 11.448 19.8714 11.3478C19.9717 11.2475 20.028 11.1115 20.028 10.9697H19.4935Z" fill="#F5DDC3"/>
<path fill-rule="evenodd" clip-rule="evenodd" d="M19.4936 10.9697H19.9998C19.9998 10.6883 19.775 10.4634 19.4936 10.4634C19.2121 10.4634 18.9869 10.6884 18.9869 10.9697C18.9869 11.251 19.2121 11.4903 19.4936 11.4903C19.775 11.4903 19.9998 11.2512 19.9998 10.9697H19.4936Z" fill="#F6DFC6"/>
<path fill-rule="evenodd" clip-rule="evenodd" d="M19.4936 10.9699H19.9858C19.9858 10.7025 19.7608 10.4775 19.4936 10.4775C19.2261 10.4775 19.0011 10.7026 19.0011 10.9699C19.0011 11.2513 19.2261 11.4623 19.4936 11.4623C19.7608 11.4623 19.9858 11.2513 19.9858 10.9699H19.4936Z" fill="#F6DFC7"/>
<path fill-rule="evenodd" clip-rule="evenodd" d="M19.4935 10.9699H19.9716C19.9716 10.7167 19.7607 10.4917 19.4935 10.4917C19.226 10.4917 19.015 10.7167 19.015 10.9699C19.0145 11.0329 19.0265 11.0953 19.0504 11.1536C19.0742 11.2119 19.1095 11.2649 19.154 11.3094C19.1985 11.3539 19.2515 11.3891 19.3098 11.413C19.3681 11.4368 19.4305 11.4488 19.4935 11.4483C19.5564 11.4488 19.6188 11.4368 19.6771 11.4129C19.7353 11.389 19.7883 11.3538 19.8328 11.3093C19.8773 11.2648 19.9125 11.2118 19.9363 11.1536C19.9602 11.0953 19.9722 11.0329 19.9716 10.9699H19.4935Z" fill="#F6E1CA"/>
<path fill-rule="evenodd" clip-rule="evenodd" d="M19.4935 10.9696H19.9576C19.9576 10.7164 19.7466 10.5195 19.4935 10.5195C19.2402 10.5195 19.0291 10.7164 19.0291 10.9696C19.0291 11.2229 19.2401 11.4339 19.4935 11.4339C19.7467 11.4339 19.9576 11.2229 19.9576 10.9696H19.4935Z" fill="#F6E1CC"/>
<path fill-rule="evenodd" clip-rule="evenodd" d="M19.4936 10.9698H19.9296C19.929 10.8543 19.8829 10.7438 19.8013 10.6621C19.7196 10.5805 19.6091 10.5343 19.4936 10.5337C19.378 10.5342 19.2674 10.5803 19.1857 10.662C19.104 10.7437 19.0578 10.8543 19.0573 10.9698C19.0573 11.2231 19.2543 11.42 19.4936 11.42C19.7326 11.42 19.9296 11.2231 19.9296 10.9698H19.4936Z" fill="#F7E3CD"/>
<path fill-rule="evenodd" clip-rule="evenodd" d="M19.4936 10.9698H19.9155C19.9155 10.7448 19.7326 10.5479 19.4936 10.5479C19.2544 10.5479 19.0715 10.7448 19.0715 10.9698C19.0715 11.2089 19.2544 11.3919 19.4936 11.3919C19.7326 11.3919 19.9155 11.2089 19.9155 10.9698H19.4936Z" fill="#F7E3CF"/>
<path fill-rule="evenodd" clip-rule="evenodd" d="M19.4935 10.9695H19.9013C19.9012 10.8614 19.8582 10.7577 19.7818 10.6812C19.7054 10.6047 19.6017 10.5617 19.4935 10.5615C19.3872 10.5643 19.2861 10.6085 19.2118 10.6847C19.1375 10.7609 19.0959 10.8631 19.0959 10.9695C19.0959 11.076 19.1375 11.1782 19.2118 11.2544C19.2861 11.3306 19.3872 11.3748 19.4935 11.3776C19.6017 11.3774 19.7054 11.3344 19.7818 11.2579C19.8583 11.1814 19.9013 11.0777 19.9013 10.9695H19.4935Z" fill="#F7E3D0"/>
<path fill-rule="evenodd" clip-rule="evenodd" d="M19.4936 10.9697H19.8874C19.8874 10.7588 19.7046 10.5898 19.4936 10.5898C19.2823 10.5898 19.0996 10.7588 19.0996 10.9697C19.0995 11.0215 19.1096 11.0728 19.1294 11.1206C19.1491 11.1685 19.1782 11.2119 19.2148 11.2486C19.2514 11.2852 19.2949 11.3142 19.3427 11.3339C19.3906 11.3537 19.4419 11.3638 19.4936 11.3637C19.5454 11.3638 19.5966 11.3537 19.6445 11.3339C19.6923 11.3141 19.7358 11.2851 19.7723 11.2485C19.8089 11.2119 19.8379 11.1684 19.8577 11.1206C19.8774 11.0728 19.8875 11.0215 19.8874 10.9697H19.4936Z" fill="#F8E5D1"/>
<path fill-rule="evenodd" clip-rule="evenodd" d="M19.4936 10.9697H19.8593C19.8593 10.7728 19.7046 10.604 19.4936 10.604C19.4454 10.6037 19.3977 10.6129 19.3531 10.6311C19.3086 10.6494 19.2681 10.6763 19.2341 10.7103C19.2 10.7443 19.1731 10.7848 19.1548 10.8293C19.1365 10.8738 19.1272 10.9216 19.1276 10.9697C19.1276 11.1807 19.2823 11.3496 19.4936 11.3496C19.7046 11.3496 19.8593 11.1808 19.8593 10.9697H19.4936Z" fill="#F8E8D4"/>
<path fill-rule="evenodd" clip-rule="evenodd" d="M19.4935 10.97H19.8451C19.8455 10.9237 19.8368 10.8778 19.8193 10.8349C19.8018 10.792 19.7759 10.753 19.7432 10.7203C19.7105 10.6875 19.6715 10.6616 19.6286 10.6441C19.5858 10.6265 19.5399 10.6177 19.4935 10.6182C19.4472 10.6177 19.4013 10.6265 19.3584 10.644C19.3155 10.6616 19.2765 10.6874 19.2438 10.7202C19.211 10.753 19.1851 10.7919 19.1676 10.8348C19.1501 10.8777 19.1413 10.9237 19.1417 10.97C19.1413 11.0163 19.15 11.0623 19.1676 11.1052C19.1851 11.1481 19.211 11.1871 19.2437 11.2198C19.2765 11.2526 19.3155 11.2785 19.3584 11.296C19.4013 11.3135 19.4472 11.3223 19.4935 11.3218C19.5399 11.3223 19.5858 11.3135 19.6286 11.2959C19.6715 11.2784 19.7105 11.2525 19.7432 11.2197C19.7759 11.187 19.8018 11.148 19.8193 11.1051C19.8368 11.0623 19.8455 11.0163 19.8451 10.97H19.4935Z" fill="#F8E8D6"/>
<path fill-rule="evenodd" clip-rule="evenodd" d="M19.4935 10.9696H19.8313C19.8313 10.7868 19.6763 10.646 19.4935 10.646C19.3105 10.646 19.1558 10.7867 19.1558 10.9696C19.1558 11.1526 19.3105 11.3074 19.4935 11.3074C19.6763 11.3074 19.8313 11.1526 19.8313 10.9696H19.4935Z" fill="#F8E8D8"/>
<path fill-rule="evenodd" clip-rule="evenodd" d="M19.4936 10.9697H19.8171C19.8171 10.8009 19.6621 10.6602 19.4936 10.6602C19.3245 10.6602 19.1698 10.8009 19.1698 10.9697C19.1698 11.1525 19.3245 11.2933 19.4936 11.2933C19.6621 11.2933 19.8171 11.1527 19.8171 10.9697H19.4936Z" fill="#F9EAD9"/>
<path fill-rule="evenodd" clip-rule="evenodd" d="M19.4936 10.9698H19.7888C19.7888 10.8151 19.6621 10.6743 19.4936 10.6743C19.3245 10.6743 19.1981 10.815 19.1981 10.9698C19.1981 11.1388 19.3245 11.2794 19.4936 11.2794C19.6621 11.2794 19.7888 11.1388 19.7888 10.9698H19.4936Z" fill="#FAECDC"/>
<path fill-rule="evenodd" clip-rule="evenodd" d="M19.4935 10.9699H19.775C19.7747 10.8953 19.745 10.8239 19.6923 10.7712C19.6395 10.7185 19.5681 10.6887 19.4935 10.6885C19.3385 10.6885 19.2121 10.8151 19.2121 10.9699C19.2121 11.1248 19.3385 11.2513 19.4935 11.2513C19.5681 11.2511 19.6396 11.2214 19.6923 11.1687C19.745 11.1159 19.7747 11.0445 19.775 10.9699H19.4935Z" fill="#FAECDD"/>
<path fill-rule="evenodd" clip-rule="evenodd" d="M19.4936 10.97H19.7608C19.7608 10.8293 19.6341 10.7168 19.4936 10.7168C19.3528 10.7168 19.226 10.8293 19.226 10.97C19.226 11.1247 19.3528 11.2374 19.4936 11.2374C19.5287 11.2374 19.5634 11.2305 19.5959 11.217C19.6283 11.2036 19.6578 11.1839 19.6826 11.1591C19.7074 11.1342 19.7271 11.1047 19.7405 11.0723C19.754 11.0399 19.7609 11.0051 19.7608 10.97H19.4936Z" fill="#FAECDF"/>
<path fill-rule="evenodd" clip-rule="evenodd" d="M19.4935 10.9696H19.7467C19.7467 10.843 19.6342 10.7305 19.4935 10.7305C19.3528 10.7305 19.2402 10.843 19.2402 10.9696C19.2402 11.1104 19.3528 11.2229 19.4935 11.2229C19.5268 11.223 19.5598 11.2166 19.5906 11.2039C19.6214 11.1912 19.6494 11.1725 19.6729 11.149C19.6964 11.1254 19.7151 11.0975 19.7277 11.0667C19.7404 11.0359 19.7469 11.0029 19.7467 10.9696H19.4935Z" fill="#FAEEE0"/>
<path fill-rule="evenodd" clip-rule="evenodd" d="M19.4936 10.9696H19.7187C19.7187 10.8431 19.6199 10.7446 19.4936 10.7446C19.3669 10.7446 19.2682 10.8431 19.2682 10.9696C19.2682 11.0962 19.367 11.2087 19.4936 11.2087C19.6201 11.2087 19.7187 11.0962 19.7187 10.9696H19.4936Z" fill="#FBF0E3"/>
<path fill-rule="evenodd" clip-rule="evenodd" d="M19.4935 10.9698H19.7045C19.7045 10.8572 19.6058 10.7588 19.4935 10.7588C19.381 10.7588 19.2823 10.8572 19.2823 10.9698C19.2823 11.0963 19.381 11.1807 19.4935 11.1807C19.6058 11.1807 19.7045 11.0963 19.7045 10.9698H19.4935Z" fill="#FBF1E5"/>
<path fill-rule="evenodd" clip-rule="evenodd" d="M19.4935 10.9699H19.6903C19.6903 10.8715 19.6058 10.7871 19.4935 10.7871C19.381 10.7871 19.2965 10.8715 19.2965 10.9699C19.2965 11.0826 19.381 11.167 19.4935 11.167C19.6058 11.167 19.6903 11.0826 19.6903 10.9699H19.4935Z" fill="#FBF1E7"/>
<path fill-rule="evenodd" clip-rule="evenodd" d="M19.4935 10.9696H19.6761C19.6761 10.8711 19.5919 10.8008 19.4935 10.8008C19.3948 10.8008 19.3105 10.8711 19.3105 10.9696C19.3105 11.0682 19.3948 11.1524 19.4935 11.1524C19.5919 11.1524 19.6761 11.068 19.6761 10.9696H19.4935Z" fill="#FCF3E8"/>
<path fill-rule="evenodd" clip-rule="evenodd" d="M19.4936 10.9697H19.6484C19.6484 10.8853 19.5779 10.8149 19.4936 10.8149C19.4091 10.8149 19.3386 10.8854 19.3386 10.9697C19.3386 11.0683 19.4091 11.1386 19.4936 11.1386C19.5779 11.1386 19.6484 11.0683 19.6484 10.9697H19.4936Z" fill="#FCF3EA"/>
<path fill-rule="evenodd" clip-rule="evenodd" d="M19.4936 10.9698H19.6341C19.6341 10.8994 19.5779 10.8291 19.4936 10.8291C19.4091 10.8291 19.3529 10.8994 19.3529 10.9698C19.3529 11.0543 19.4091 11.1106 19.4936 11.1106C19.5779 11.1106 19.6341 11.0543 19.6341 10.9698H19.4936Z" fill="#FCF5ED"/>
<path fill-rule="evenodd" clip-rule="evenodd" d="M19.4935 10.9699H19.62C19.62 10.8996 19.5637 10.8574 19.4935 10.8574C19.4231 10.8574 19.3668 10.8996 19.3668 10.9699C19.3668 11.0402 19.4231 11.0964 19.4935 11.0964C19.5102 11.0965 19.5267 11.0933 19.542 11.0869C19.5574 11.0806 19.5714 11.0712 19.5831 11.0595C19.5949 11.0477 19.6042 11.0338 19.6105 11.0184C19.6168 11.003 19.6201 10.9865 19.62 10.9699H19.4935Z" fill="#FCF5EF"/>
<path fill-rule="evenodd" clip-rule="evenodd" d="M19.4936 10.9695H19.6058C19.6058 10.9133 19.5496 10.8711 19.4936 10.8711C19.4373 10.8711 19.381 10.9134 19.381 10.9695C19.381 11.0258 19.4373 11.0821 19.4936 11.0821C19.5496 11.0821 19.6058 11.0258 19.6058 10.9695H19.4936Z" fill="#FDF8F1"/>
<path fill-rule="evenodd" clip-rule="evenodd" d="M19.4935 10.9696H19.5778C19.5778 10.9274 19.5356 10.8853 19.4935 10.8853C19.4511 10.8853 19.409 10.9274 19.409 10.9696C19.409 11.0258 19.4512 11.0682 19.4935 11.0682C19.5357 11.0682 19.5778 11.0258 19.5778 10.9696H19.4935Z" fill="#FDF8F3"/>
<path fill-rule="evenodd" clip-rule="evenodd" d="M19.4936 10.9698H19.5637C19.5637 10.9416 19.5357 10.8994 19.4936 10.8994C19.4512 10.8994 19.4232 10.9416 19.4232 10.9698C19.4232 11.012 19.4512 11.0402 19.4936 11.0402C19.5357 11.0402 19.5637 11.012 19.5637 10.9698H19.4936Z" fill="#FDF8F5"/>
<path fill-rule="evenodd" clip-rule="evenodd" d="M19.4935 10.9699H19.5495C19.5495 10.9418 19.5215 10.9277 19.4935 10.9277C19.4652 10.9277 19.4371 10.9418 19.4371 10.9699C19.4371 10.9981 19.4652 11.0262 19.4935 11.0262C19.5215 11.0262 19.5495 10.9981 19.5495 10.9699H19.4935Z" fill="#FEFBF6"/>
<path fill-rule="evenodd" clip-rule="evenodd" d="M19.4936 10.97H19.5216C19.5216 10.956 19.5074 10.9419 19.4936 10.9419C19.4794 10.9419 19.4511 10.956 19.4511 10.97C19.4511 10.9981 19.4794 11.0122 19.4936 11.0122C19.5075 11.0122 19.5216 10.9981 19.5216 10.97H19.4936Z" fill="#FFFFFB"/>
<path fill-rule="evenodd" clip-rule="evenodd" d="M19.4934 10.9699H19.5071C19.5071 10.9699 19.5071 10.9561 19.4934 10.9561C19.4794 10.9561 19.4794 10.9699 19.4794 10.9699C19.4794 10.9838 19.4794 10.9977 19.4934 10.9977C19.5071 10.9977 19.5071 10.9838 19.5071 10.9699H19.4934Z" fill="white"/>
<path fill-rule="evenodd" clip-rule="evenodd" d="M23.1655 11.617L22.1665 9.08447H21.3505L22.9545 12.9535H23.3485L24.9805 9.08447H24.1785L23.1655 11.617ZM25.3182 12.8552H27.4004V12.222H26.0497V11.2089H27.344V10.5618H26.0497V9.73163H27.4004V9.08447H25.3182V12.8552ZM30.3127 10.1959C30.3127 9.49252 29.8342 9.08447 28.9762 9.08447H27.8927V12.855H28.6243V11.3496H28.7227L29.7357 12.855H30.6362L29.4544 11.2651C30.003 11.1527 30.3127 10.7728 30.3127 10.1959ZM28.8353 10.8292H28.6243V9.67551H28.8493C29.3136 9.67551 29.5526 9.87243 29.5526 10.2383C29.5528 10.618 29.3138 10.8292 28.8353 10.8292ZM7.16758 13.9623V14.3001H7.58477V14.4368H7.16758V15.0254H7.01764V13.8254H7.59842V13.9623H7.16758ZM8.28327 13.8254H8.43335V15.0254H8.28327V13.8254ZM9.15779 13.7678L10.0577 14.7121V13.8254H10.2077V15.0748L9.30678 14.1311V15.0254H9.15779V13.7678ZM11.595 14.588H11.1675L11.3811 14.1021L11.595 14.588ZM11.6564 14.7248L11.7932 15.0254H11.9547L11.3812 13.7745L10.8081 15.0254H10.9688L11.1061 14.7248H11.6564ZM12.5548 13.7678L13.4557 14.7121V13.8254H13.6058V15.0748L12.7038 14.1311V15.0254H12.5548V13.7678ZM15.2063 14.0549C15.1209 13.9781 15.0027 13.937 14.8895 13.937C14.6211 13.937 14.4157 14.1614 14.4157 14.4273C14.4157 14.6899 14.6191 14.9141 14.8867 14.9141C15.0047 14.9141 15.1172 14.8699 15.2061 14.79V14.967C15.1101 15.0214 15.0016 15.0503 14.8912 15.0509C14.5483 15.0509 14.2654 14.7789 14.2654 14.4318C14.2654 14.0767 14.5502 13.7995 14.9043 13.7995C15.0096 13.7995 15.116 13.8254 15.206 13.881V14.0549H15.2063ZM15.8949 13.8254H16.0441V15.0254H15.8949V13.8254ZM17.442 14.588H17.0147L17.2294 14.1021L17.442 14.588ZM17.5036 14.7248L17.6408 15.0254H17.8016L17.2294 13.7745L16.656 15.0254H16.8163L16.9531 14.7248H17.5036ZM18.5658 14.8893H18.9305V15.0254H18.4166V13.8254H18.5658V14.8893ZM21.0507 14.0532C21.0073 13.978 20.9497 13.9399 20.8582 13.9399C20.7624 13.9399 20.657 14.005 20.657 14.1104C20.657 14.204 20.7507 14.2537 20.825 14.2822L20.9103 14.316C21.0813 14.3825 21.2086 14.4767 21.2086 14.677C21.2086 14.8954 21.0395 15.0509 20.825 15.0509C20.6305 15.0509 20.4794 14.908 20.4545 14.7153L20.6054 14.6837C20.6035 14.8155 20.7086 14.9111 20.8369 14.9111C20.9662 14.9111 21.0582 14.8032 21.0582 14.677C21.0582 14.5484 20.955 14.4924 20.8518 14.4491L20.7693 14.4146C20.6319 14.3556 20.5079 14.2777 20.5079 14.1104C20.5079 13.916 20.6797 13.7995 20.8616 13.7995C20.9947 13.7995 21.1048 13.8652 21.1697 13.9811L21.0507 14.0532ZM21.8861 13.8254H22.5312V13.9623H22.0361V14.2986H22.5176V14.4353H22.0361V14.8893H22.5312V15.0254H21.8861V13.8254ZM23.3807 13.9591H23.4191C23.5685 13.9591 23.7463 13.9862 23.7463 14.1744C23.7463 14.3651 23.5798 14.3935 23.4273 14.3935H23.3806V13.9591H23.3807ZM23.5984 14.5037C23.7718 14.4827 23.8864 14.3399 23.8864 14.1677C23.8864 14.0532 23.8287 13.9399 23.7282 13.8809C23.6331 13.8269 23.5183 13.8254 23.4122 13.8254H23.2309V15.0254H23.3808V14.5184H23.4424L23.7958 15.0254H23.9769L23.5984 14.5037ZM25.0051 14.7136L25.3616 13.8254H25.5259L25.0051 15.0897L24.4833 13.8254H24.6473L25.0051 14.7136ZM26.137 13.8254H26.2868V15.0254H26.137V13.8254ZM27.9005 14.0549C27.8141 13.9781 27.6957 13.937 27.5821 13.937C27.314 13.937 27.1086 14.1614 27.1086 14.4273C27.1086 14.6899 27.3118 14.9141 27.5793 14.9141C27.6975 14.9141 27.8111 14.8699 27.9005 14.79V14.967C27.8041 15.0213 27.6955 15.0502 27.5848 15.0509C27.2429 15.0509 26.9585 14.7789 26.9585 14.4318C26.9585 14.0767 27.2448 13.7995 27.5974 13.7995C27.7027 13.7995 27.8092 13.8254 27.9007 13.881V14.0549H27.9005ZM28.5918 13.8254H29.2368V13.9623H28.742V14.2986H29.2226V14.4353H28.742V14.8893H29.2368V15.0254H28.5918V13.8254ZM30.4684 14.0532C30.4247 13.978 30.3673 13.9399 30.2767 13.9399C30.1815 13.9399 30.076 14.005 30.076 14.1104C30.076 14.204 30.1689 14.2537 30.2431 14.2822L30.3298 14.316C30.4994 14.3825 30.6267 14.4767 30.6267 14.677C30.6267 14.8954 30.4579 15.0509 30.2431 15.0509C30.0494 15.0509 29.8972 14.908 29.8728 14.7153L30.0233 14.6837C30.0214 14.8155 30.1274 14.9111 30.2559 14.9111C30.3849 14.9111 30.4775 14.8032 30.4775 14.677C30.4775 14.5484 30.3732 14.4924 30.2702 14.4491L30.1876 14.4146C30.0502 14.3556 29.9262 14.2777 29.9262 14.1104C29.9262 13.916 30.0983 13.7995 30.2799 13.7995C30.4131 13.7995 30.5234 13.8652 30.5891 13.9811L30.4684 14.0532ZM30.7426 9.41891C30.7426 9.44786 30.7228 9.46316 30.6826 9.46316H30.669V9.37671H30.6836C30.7235 9.37685 30.7426 9.39051 30.7426 9.41891ZM30.8603 9.64738L30.7509 9.51C30.7976 9.49798 30.8245 9.46384 30.8245 9.41686C30.8245 9.35186 30.7789 9.31512 30.6978 9.31512H30.592V9.64738H30.6704V9.51874L30.7635 9.64738H30.8603ZM31 9.48063C31 9.32195 30.871 9.19113 30.7143 9.19113C30.6762 9.19087 30.6384 9.19818 30.6031 9.21264C30.5679 9.22709 30.5358 9.24839 30.5088 9.27532C30.4818 9.30224 30.4604 9.33425 30.4459 9.36949C30.4314 9.40474 30.424 9.44251 30.4241 9.48063C30.4241 9.64191 30.5537 9.77055 30.7143 9.77055C30.871 9.77042 31 9.63973 31 9.48063ZM30.9416 9.48145C30.9416 9.61173 30.8391 9.71852 30.713 9.71852C30.586 9.71852 30.4815 9.61228 30.4815 9.48145C30.4815 9.34913 30.585 9.24398 30.713 9.24398C30.8391 9.24398 30.9416 9.35077 30.9416 9.48145Z" fill="black"/>
</svg>
