<svg width="55" height="55" viewBox="0 0 55 55" fill="none" xmlns="http://www.w3.org/2000/svg">
<mask id="mask0" style="mask-type:alpha" maskUnits="userSpaceOnUse" x="0" y="0" width="55" height="55">
<rect x="0.993164" y="0.00195312" width="54" height="54" fill="#C4C4C4"/>
</mask>
<g mask="url(#mask0)">
<path d="M55 27.002C55 41.9136 42.9117 54.002 28 54.002C13.0883 54.002 1 41.9136 1 27.002C1 12.0903 13.0883 0.00195312 28 0.00195312C42.9117 0.00195312 55 12.0903 55 27.002ZM3.7 27.002C3.7 40.4225 14.5795 51.302 28 51.302C41.4205 51.302 52.3 40.4225 52.3 27.002C52.3 13.5814 41.4205 2.70195 28 2.70195C14.5795 2.70195 3.7 13.5814 3.7 27.002Z" fill="#E8DBD3"/>
<path d="M35.2783 1.00058C39.8424 2.27794 43.9899 4.73419 47.3038 8.12247C50.6178 11.5107 52.9815 15.7117 54.1573 20.303C55.3331 24.8943 55.2797 29.7142 54.0023 34.2783C52.725 38.8425 50.2687 42.9899 46.8805 46.3039L44.9926 44.3736C48.042 41.3911 50.2526 37.6584 51.4023 33.5507C52.5519 29.443 52.6 25.105 51.5417 20.9728C50.4835 16.8406 48.3562 13.0598 45.3736 10.0104C42.391 6.96092 38.6583 4.75029 34.5506 3.60067L35.2783 1.00058Z" fill="#5E4D45"/>
<path d="M33.7885 0.625234C34.3408 0.746457 34.8893 0.885008 35.433 1.04068L34.6898 3.63638C34.2005 3.49627 33.7069 3.37158 33.2097 3.26248L33.7885 0.625234Z" fill="#FAF7F6"/>
<path d="M46.6696 46.4969C46.2611 46.8881 45.8405 47.2663 45.4084 47.6311L43.6669 45.5678C44.0558 45.2395 44.4344 44.8991 44.802 44.547L46.6696 46.4969Z" fill="#FAF7F6"/>
<path d="M2.82835 36.7821C2.62344 36.255 2.43514 35.7216 2.26374 35.1827L4.83674 34.3643C4.991 34.8494 5.16047 35.3295 5.34489 35.8039L2.82835 36.7821Z" fill="#FAF7F6"/>
</g>
<path opacity="0.8" d="M18.0627 23.314L19.6167 22.306V31H20.8347V20.71H19.9247L17.4467 22.292L18.0627 23.314ZM28.6333 20.71L23.2713 31H24.5593L29.9213 20.71H28.6333ZM33.902 25.106V26.156H34.182C34.266 26.156 34.364 26.17 34.476 26.17C35.218 26.198 35.806 26.38 36.226 26.716C36.646 27.052 36.87 27.514 36.87 28.102C36.87 28.382 36.8 28.648 36.688 28.872C36.576 29.11 36.408 29.306 36.212 29.474C36.002 29.642 35.75 29.768 35.47 29.852C35.19 29.936 34.882 29.978 34.546 29.978C34.07 29.978 33.622 29.88 33.216 29.67C32.81 29.46 32.502 29.166 32.292 28.802L31.242 29.348C31.55 29.88 31.998 30.314 32.572 30.65C33.146 30.986 33.804 31.14 34.546 31.14C35.064 31.14 35.54 31.07 35.988 30.916C36.422 30.762 36.8 30.552 37.108 30.272C37.416 30.006 37.668 29.684 37.836 29.32C38.004 28.956 38.102 28.55 38.102 28.102C38.102 27.514 37.948 27.01 37.654 26.576C37.36 26.142 36.996 25.82 36.562 25.596C36.954 25.386 37.276 25.092 37.528 24.714C37.78 24.336 37.92 23.874 37.92 23.342C37.92 22.978 37.836 22.614 37.682 22.278C37.528 21.942 37.318 21.648 37.038 21.396C36.758 21.144 36.436 20.948 36.044 20.794C35.652 20.654 35.232 20.57 34.77 20.57C34.098 20.57 33.496 20.724 32.978 21.004C32.46 21.284 32.04 21.662 31.732 22.138L32.698 22.81C32.908 22.488 33.188 22.222 33.538 22.026C33.874 21.83 34.294 21.732 34.77 21.732C35.022 21.732 35.274 21.774 35.498 21.844C35.722 21.928 35.932 22.026 36.1 22.166C36.268 22.306 36.408 22.488 36.52 22.684C36.618 22.88 36.674 23.104 36.674 23.342C36.674 23.846 36.478 24.266 36.1 24.588C35.708 24.91 35.218 25.078 34.602 25.092C34.462 25.106 34.322 25.106 34.196 25.106H33.902Z" fill="#1F1913"/>
</svg>
