<svg width="8" height="8" viewBox="0 0 8 8" fill="none" xmlns="http://www.w3.org/2000/svg">
<path d="M4 0.25C1.929 0.25 0.25 1.929 0.25 4C0.25 6.071 1.929 7.75 4 7.75C6.071 7.75 7.75 6.071 7.75 4C7.75 1.929 6.071 0.25 4 0.25ZM4.625 6.46875H3.375V3.46875H4.625V6.46875ZM4 2.78125C3.83424 2.78125 3.67527 2.7154 3.55806 2.59819C3.44085 2.48098 3.375 2.32201 3.375 2.15625C3.375 1.99049 3.44085 1.83152 3.55806 1.71431C3.67527 1.5971 3.83424 1.53125 4 1.53125C4.16576 1.53125 4.32473 1.5971 4.44194 1.71431C4.55915 1.83152 4.625 1.99049 4.625 2.15625C4.625 2.32201 4.55915 2.48098 4.44194 2.59819C4.32473 2.7154 4.16576 2.78125 4 2.78125Z" fill="#5E4D45"/>
</svg>
