<svg width="29" height="28" viewBox="0 0 29 28" fill="none" xmlns="http://www.w3.org/2000/svg">
<path d="M11.2226 14.0001C11.2226 12.2819 12.615 10.8887 14.3332 10.8887C16.0513 10.8887 17.4445 12.2819 17.4445 14.0001C17.4445 15.7182 16.0513 17.1114 14.3332 17.1114C12.615 17.1114 11.2226 15.7182 11.2226 14.0001ZM9.5406 14.0001C9.5406 16.647 11.6862 18.7926 14.3332 18.7926C16.9801 18.7926 19.1257 16.647 19.1257 14.0001C19.1257 11.3531 16.9801 9.20751 14.3332 9.20751C11.6862 9.20751 9.5406 11.3531 9.5406 14.0001ZM18.1954 9.01752C18.1954 9.63572 18.6968 10.1378 19.3157 10.1378C19.9339 10.1378 20.436 9.63572 20.436 9.01752C20.436 8.39932 19.9347 7.89798 19.3157 7.89798C18.6968 7.89798 18.1954 8.39932 18.1954 9.01752ZM10.5621 21.5971C9.65218 21.5557 9.15762 21.4041 8.82892 21.276C8.39316 21.1064 8.08256 20.9043 7.75536 20.5779C7.42892 20.2514 7.22612 19.9408 7.05725 19.5051C6.92908 19.1764 6.77755 18.6818 6.73609 17.7718C6.69085 16.788 6.6818 16.4925 6.6818 14.0001C6.6818 11.5077 6.69161 11.2129 6.73609 10.2283C6.77755 9.31833 6.92984 8.82452 7.05725 8.49507C7.22688 8.05931 7.42892 7.7487 7.75536 7.42151C8.0818 7.09507 8.39241 6.89227 8.82892 6.7234C9.15762 6.59523 9.65218 6.4437 10.5621 6.40223C11.546 6.357 11.8415 6.34795 14.3332 6.34795C16.8256 6.34795 17.1203 6.35775 18.1049 6.40223C19.0149 6.4437 19.5087 6.59599 19.8382 6.7234C20.2739 6.89227 20.5845 7.09507 20.9117 7.42151C21.2382 7.74795 21.4402 8.05931 21.6098 8.49507C21.738 8.82377 21.8895 9.31833 21.931 10.2283C21.9762 11.2129 21.9853 11.5077 21.9853 14.0001C21.9853 16.4917 21.9762 16.7872 21.931 17.7718C21.8895 18.6818 21.7372 19.1764 21.6098 19.5051C21.4402 19.9408 21.2382 20.2514 20.9117 20.5779C20.5853 20.9043 20.2739 21.1064 19.8382 21.276C19.5095 21.4041 19.0149 21.5557 18.1049 21.5971C17.1211 21.6424 16.8256 21.6514 14.3332 21.6514C11.8415 21.6514 11.546 21.6424 10.5621 21.5971ZM10.4852 4.72329C9.4916 4.76852 8.81309 4.92609 8.21977 5.15678C7.60609 5.39502 7.0859 5.71467 6.56646 6.23336C6.04777 6.75204 5.72812 7.27224 5.48988 7.88667C5.25919 8.47999 5.10162 9.1585 5.05639 10.1521C5.0104 11.1473 4.99985 11.4654 4.99985 14.0001C4.99985 16.5347 5.0104 16.8528 5.05639 17.848C5.10162 18.8416 5.25919 19.5201 5.48988 20.1135C5.72812 20.7271 6.04702 21.2481 6.56646 21.7668C7.08514 22.2855 7.60534 22.6044 8.21977 22.8433C8.81384 23.074 9.4916 23.2316 10.4852 23.2768C11.4812 23.3221 11.7985 23.3334 14.3332 23.3334C16.8685 23.3334 17.1859 23.3228 18.1811 23.2768C19.1747 23.2316 19.8532 23.074 20.4466 22.8433C21.0602 22.6044 21.5804 22.2855 22.0999 21.7668C22.6186 21.2481 22.9375 20.7271 23.1764 20.1135C23.4071 19.5201 23.5655 18.8416 23.6099 17.848C23.6552 16.8521 23.6657 16.5347 23.6657 14.0001C23.6657 11.4654 23.6552 11.1473 23.6099 10.1521C23.5647 9.1585 23.4071 8.47999 23.1764 7.88667C22.9375 7.27299 22.6186 6.7528 22.0999 6.23336C21.5812 5.71467 21.0602 5.39502 20.4473 5.15678C19.8532 4.92609 19.1747 4.76777 18.1818 4.72329C17.1867 4.67806 16.8685 4.66675 14.3339 4.66675C11.7985 4.66675 11.4812 4.6773 10.4852 4.72329Z" fill="black"/>
</svg>
