<svg width="24" height="25" viewBox="0 0 24 25" fill="none" xmlns="http://www.w3.org/2000/svg">
<g clip-path="url(#clip0)">
<path d="M7.5 5.04541V10.0454V5.04541ZM15.5 5.04541V10.0454V5.04541ZM7 12.5454H10H7ZM16 12.5454H13H16ZM7 15.5454H10H7ZM13 15.5454H16H13ZM5.5 7.54541H17.5C17.7652 7.54541 18.0196 7.65077 18.2071 7.8383C18.3946 8.02584 18.5 8.28019 18.5 8.54541V18.5454C18.5 18.8106 18.3946 19.065 18.2071 19.2525C18.0196 19.4401 17.7652 19.5454 17.5 19.5454H5.5C5.23478 19.5454 4.98043 19.4401 4.79289 19.2525C4.60536 19.065 4.5 18.8106 4.5 18.5454V8.54541C4.5 8.28019 4.60536 8.02584 4.79289 7.8383C4.98043 7.65077 5.23478 7.54541 5.5 7.54541V7.54541Z" stroke="black" stroke-width="2"/>
</g>
<defs>
<clipPath id="clip0">
<rect width="15" height="15" fill="white" transform="translate(4 5.04541)"/>
</clipPath>
</defs>
</svg>
