<svg width="24" height="24" viewBox="0 0 24 24" fill="none" xmlns="http://www.w3.org/2000/svg">
<path d="M19.9679 15.9791V18.3877C19.9688 18.6113 19.923 18.8327 19.8334 19.0375C19.7438 19.2424 19.6124 19.4263 19.4477 19.5775C19.2829 19.7286 19.0884 19.8437 18.8765 19.9154C18.6647 19.987 18.4403 20.0136 18.2176 19.9935C15.747 19.725 13.3738 18.8808 11.2887 17.5286C9.34881 16.2959 7.70412 14.6512 6.47142 12.7113C5.11454 10.6168 4.27012 8.23206 4.00658 5.75036C3.98651 5.52834 4.0129 5.30457 4.08406 5.0933C4.15521 4.88203 4.26958 4.6879 4.41987 4.52325C4.57017 4.35861 4.7531 4.22706 4.95702 4.13699C5.16094 4.04691 5.38138 4.00029 5.60431 4.00008H8.01296C8.4026 3.99624 8.78035 4.13422 9.07578 4.3883C9.37122 4.64237 9.56419 4.99521 9.61872 5.38103C9.72038 6.15185 9.90892 6.9087 10.1807 7.63713C10.2888 7.9245 10.3121 8.23682 10.2481 8.53707C10.1841 8.83732 10.0353 9.11292 9.81944 9.33121L8.79978 10.3509C9.94273 12.3609 11.607 14.0252 13.6171 15.1682L14.6367 14.1485C14.855 13.9326 15.1306 13.7839 15.4309 13.7198C15.7311 13.6558 16.0434 13.6792 16.3308 13.7872C17.0592 14.059 17.8161 14.2476 18.5869 14.3492C18.9769 14.4042 19.3331 14.6007 19.5877 14.9012C19.8423 15.2017 19.9776 15.5853 19.9679 15.9791Z" stroke="black" stroke-width="2" stroke-linecap="round" stroke-linejoin="round"/>
</svg>
