<svg width="28" height="28" viewBox="0 0 28 28" fill="none" xmlns="http://www.w3.org/2000/svg">
<path d="M14.5167 21.9527L9.7296 21.8652C8.17964 21.8346 6.62583 21.8955 5.10627 21.5795C2.79466 21.1072 2.6309 18.7918 2.45954 16.8495C2.22343 14.119 2.31483 11.3388 2.76042 8.63108C3.01196 7.11174 4.0019 6.20514 5.5328 6.10649C10.7007 5.74845 15.903 5.79088 21.0594 5.95792C21.604 5.97323 22.1524 6.05692 22.6894 6.15219C25.3401 6.61683 25.4047 9.24078 25.5765 11.4497C25.7479 13.6813 25.6755 15.9244 25.348 18.1409C25.0852 19.9761 24.5825 21.5151 22.4608 21.6636C19.8025 21.8579 17.2053 22.0143 14.5395 21.9645C14.5396 21.9527 14.5243 21.9527 14.5167 21.9527ZM11.7023 17.3066C13.7056 16.1564 15.6706 15.0253 17.6624 13.8828C15.6554 12.7326 13.6941 11.6016 11.7023 10.4591V17.3066Z" fill="black"/>
</svg>
